<svg xmlns="http://www.w3.org/2000/svg" width="41.059" height="27.384" viewBox="0 0 41.059 27.384">
  <path id="Icon_ionic-ios-arrow-round-back" data-name="Icon ionic-ios-arrow-round-back" d="M34.066,11.776a1.864,1.864,0,0,0-.014,2.624l8.657,8.685H9.722a1.854,1.854,0,0,0,0,3.708H42.709l-8.671,8.685a1.877,1.877,0,0,0,.014,2.624,1.846,1.846,0,0,0,2.61-.014L48.413,26.251h0a2.082,2.082,0,0,0,.385-.585,1.769,1.769,0,0,0,.143-.713,1.859,1.859,0,0,0-.528-1.3L36.662,11.819A1.817,1.817,0,0,0,34.066,11.776Z" transform="translate(-7.882 -11.252)" fill="#fff"/>
</svg>
