<svg xmlns="http://www.w3.org/2000/svg" width="21.24" height="21.24" viewBox="0 0 21.24 21.24">
  <path id="Icon_ionic-logo-linkedin" data-name="Icon ionic-logo-linkedin" d="M24.041,4.5H6.315A1.733,1.733,0,0,0,4.5,6.154V23.919a1.869,1.869,0,0,0,1.815,1.82H24.036a1.774,1.774,0,0,0,1.7-1.82V6.154A1.629,1.629,0,0,0,24.041,4.5ZM11.084,22.2H8.041V12.744h3.043Zm-1.416-10.9H9.645a1.562,1.562,0,0,1-1.6-1.632A1.571,1.571,0,0,1,9.684,8.041a1.567,1.567,0,0,1,1.627,1.632A1.571,1.571,0,0,1,9.667,11.305ZM22.2,22.2H19.161V17.031c0-1.239-.443-2.086-1.544-2.086a1.665,1.665,0,0,0-1.56,1.123,2.049,2.049,0,0,0-.105.747V22.2H12.91V12.744h3.043V14.06A3.08,3.08,0,0,1,18.7,12.522c2,0,3.508,1.317,3.508,4.155V22.2Z" transform="translate(-4.5 -4.5)" fill="#231f20"/>
</svg>
