<svg xmlns="http://www.w3.org/2000/svg" width="15.297" height="15.297" viewBox="0 0 15.297 15.297">
  <path id="Icon_awesome-phone-alt" data-name="Icon awesome-phone-alt" d="M14.861,10.81,11.514,9.376a.717.717,0,0,0-.837.206L9.2,11.392A11.074,11.074,0,0,1,3.9,6.1L5.712,4.617a.715.715,0,0,0,.206-.837L4.485.434A.722.722,0,0,0,3.663.018L.556.736a.717.717,0,0,0-.556.7A13.861,13.861,0,0,0,13.863,15.3a.717.717,0,0,0,.7-.556l.717-3.107A.726.726,0,0,0,14.861,10.81Z" transform="translate(0 0)" fill="#171717"/>
</svg>
