<svg xmlns="http://www.w3.org/2000/svg" width="22.635" height="15.819" viewBox="0 0 22.635 15.819">
  <path id="Icon_simple-youtube" data-name="Icon simple-youtube" d="M22.17,7.867A2.837,2.837,0,0,0,20.2,5.9c-1.764-.473-8.865-.473-8.865-.473S4.252,5.415,2.47,5.9A2.837,2.837,0,0,0,.5,7.867a29.481,29.481,0,0,0-.493,5.477A29.481,29.481,0,0,0,.5,18.8a2.837,2.837,0,0,0,1.97,1.97c1.762.474,8.865.474,8.865.474s7.082,0,8.865-.474a2.837,2.837,0,0,0,1.97-1.97,29.481,29.481,0,0,0,.472-5.456A29.48,29.48,0,0,0,22.17,7.867Zm-13.1,8.865V9.945l5.91,3.4Z" transform="translate(-0.007 -5.424)" fill="#231f20"/>
</svg>
