<svg id="Icon_ionic-logo-linkedin" data-name="Icon ionic-logo-linkedin" xmlns="http://www.w3.org/2000/svg" width="17.248" height="17.248" viewBox="0 0 17.248 17.248">
  <path id="Icon_ionic-logo-linkedin-2" data-name="Icon ionic-logo-linkedin" d="M20.369,4.5H5.974A1.407,1.407,0,0,0,4.5,5.843V20.27a1.518,1.518,0,0,0,1.474,1.478H20.365a1.441,1.441,0,0,0,1.384-1.478V5.843A1.323,1.323,0,0,0,20.369,4.5ZM9.847,18.877H7.375V11.194H9.847ZM8.7,10.026H8.678A1.268,1.268,0,0,1,7.375,8.7,1.276,1.276,0,0,1,8.71,7.375,1.273,1.273,0,0,1,10.031,8.7,1.276,1.276,0,0,1,8.7,10.026Zm10.181,8.851H16.406v-4.2c0-1.006-.359-1.694-1.254-1.694a1.352,1.352,0,0,0-1.267.912,1.664,1.664,0,0,0-.085.607v4.376H11.329V11.194H13.8v1.069a2.5,2.5,0,0,1,2.229-1.249c1.622,0,2.849,1.069,2.849,3.374v4.488Z" transform="translate(-4.5 -4.5)" fill="#231f20"/>
</svg>
