<svg id="Icon_metro-instagram" data-name="Icon metro-instagram" xmlns="http://www.w3.org/2000/svg" width="16.414" height="16.413" viewBox="0 0 16.414 16.413">
  <path id="Icon_metro-instagram-2" data-name="Icon metro-instagram" d="M16.259,1.928H5.3A2.733,2.733,0,0,0,2.571,4.653V15.616A2.733,2.733,0,0,0,5.3,18.341H16.259a2.733,2.733,0,0,0,2.725-2.725V4.653A2.733,2.733,0,0,0,16.259,1.928ZM7.825,9.109H13.73a3.126,3.126,0,1,1-5.905,0Zm9.108,0v6.154a1.029,1.029,0,0,1-1.026,1.026H5.648a1.029,1.029,0,0,1-1.026-1.026V9.109h1.6a4.664,4.664,0,1,0,9.1,0h1.6Zm0-3.591a.514.514,0,0,1-.513.513H15.394a.514.514,0,0,1-.513-.513V4.493a.514.514,0,0,1,.513-.513H16.42a.514.514,0,0,1,.513.513Z" transform="translate(-2.571 -1.928)" fill="#231f20"/>
</svg>
