<svg id="Icon_awesome-twitter" data-name="Icon awesome-twitter" xmlns="http://www.w3.org/2000/svg" width="20.21" height="16.413" viewBox="0 0 20.21 16.413">
  <path id="Icon_awesome-twitter-2" data-name="Icon awesome-twitter" d="M18.132,7.471c.013.18.013.359.013.539A11.7,11.7,0,0,1,6.36,19.794,11.7,11.7,0,0,1,0,17.935a8.569,8.569,0,0,0,1,.051,8.3,8.3,0,0,0,5.142-1.77A4.149,4.149,0,0,1,2.27,13.344a5.223,5.223,0,0,0,.782.064,4.381,4.381,0,0,0,1.09-.141A4.142,4.142,0,0,1,.821,9.2V9.151a4.171,4.171,0,0,0,1.872.526,4.148,4.148,0,0,1-1.282-5.54,11.773,11.773,0,0,0,8.54,4.334,4.675,4.675,0,0,1-.1-.949,4.146,4.146,0,0,1,7.168-2.834,8.155,8.155,0,0,0,2.629-1,4.131,4.131,0,0,1-1.821,2.282,8.3,8.3,0,0,0,2.385-.641,8.9,8.9,0,0,1-2.077,2.141Z" transform="translate(0 -3.381)" fill="#231f20"/>
</svg>
