<svg id="Icon_awesome-pinterest-square" data-name="Icon awesome-pinterest-square" xmlns="http://www.w3.org/2000/svg" width="16.414" height="16.413" viewBox="0 0 16.414 16.413">
  <path id="Icon_awesome-pinterest-square-2" data-name="Icon awesome-pinterest-square" d="M16.414,4.009V16.9a1.759,1.759,0,0,1-1.759,1.759h-9a9.387,9.387,0,0,0,1-2.173c.11-.421.561-2.14.561-2.14a2.4,2.4,0,0,0,2.063,1.033c2.715,0,4.668-2.495,4.668-5.594A5.28,5.28,0,0,0,8.4,4.595c-3.884,0-5.943,2.6-5.943,5.444a4.037,4.037,0,0,0,1.825,3.484c.172.081.26.044.3-.121.029-.125.183-.736.249-1.019a.265.265,0,0,0-.062-.256,3.507,3.507,0,0,1-.67-2.052A3.894,3.894,0,0,1,8.167,6.17a3.553,3.553,0,0,1,3.759,3.66c0,2.433-1.227,4.118-2.828,4.118a1.308,1.308,0,0,1-1.334-1.627,18.18,18.18,0,0,0,.744-3c0-1.942-2.766-1.674-2.766.916a3.287,3.287,0,0,0,.267,1.337c-1.15,4.865-1.323,4.928-1.084,7.056L5,18.663H1.759A1.759,1.759,0,0,1,0,16.9V4.009A1.759,1.759,0,0,1,1.759,2.25h12.9A1.759,1.759,0,0,1,16.414,4.009Z" transform="translate(0 -2.25)" fill="#231f20"/>
</svg>
