<svg xmlns="http://www.w3.org/2000/svg" width="9.332" height="20.875" viewBox="0 0 9.332 20.875">
  <g id="noun_cheap_658715" transform="translate(-31.3 -7)">
    <g id="Group_158" data-name="Group 158" transform="translate(31.3 7)">
      <path id="Path_166" data-name="Path 166" d="M40.26,16.076a4,4,0,0,0-1.114-1.393,5.173,5.173,0,0,0-1.346-.766,13.976,13.976,0,0,0-1.393-.464,5.445,5.445,0,0,1-.929-.3,2.517,2.517,0,0,1-.511-.279.474.474,0,0,1-.209-.232.591.591,0,0,1-.046-.162,1.126,1.126,0,0,1,.371-.279,1.883,1.883,0,0,1,.905-.186,1.856,1.856,0,0,1,.766.186.848.848,0,0,1,.487.534.223.223,0,0,0,.209.139.085.085,0,0,0,.07-.023l2.809-.905a.2.2,0,0,0,.139-.255,4.081,4.081,0,0,0-1.114-1.764,4.551,4.551,0,0,0-1.9-1.068V7.232a.211.211,0,0,0-.07-.162A.37.37,0,0,0,37.2,7H34.759a.14.14,0,0,0-.139.07.2.2,0,0,0-.046.162v1.6A5.469,5.469,0,0,0,32.9,9.6a4.015,4.015,0,0,0-1.161,1.277,3.149,3.149,0,0,0-.418,1.579,3.673,3.673,0,0,0,1.555,3.087,4.861,4.861,0,0,0,1.137.65,12.921,12.921,0,0,0,1.532.534,4.2,4.2,0,0,1,1.555.65.482.482,0,0,1,.139.232.955.955,0,0,1-.348.975,1.262,1.262,0,0,1-.905.348,1.578,1.578,0,0,1-.882-.255.8.8,0,0,1-.395-.627.14.14,0,0,0-.07-.139.2.2,0,0,0-.162-.046H31.532c-.139,0-.232.07-.232.209a3.823,3.823,0,0,0,.232,1.346,4.005,4.005,0,0,0,.673,1.184,4.354,4.354,0,0,0,1.021.929,4.3,4.3,0,0,0,1.323.6v1.6a.081.081,0,0,0,.023.046H33.6a.32.32,0,0,0-.255.511l2.368,3.459a.328.328,0,0,0,.511,0l2.368-3.459a.32.32,0,0,0-.255-.511h-.952c0-.023.023-.023.023-.046v-1.6a4.577,4.577,0,0,0,2.252-1.509,4.119,4.119,0,0,0,.975-2.67A4.247,4.247,0,0,0,40.26,16.076Z" transform="translate(-31.3 -7)" fill="#fff"/>
    </g>
  </g>
</svg>
