<svg xmlns="http://www.w3.org/2000/svg" width="34.5" height="34.5" viewBox="0 0 34.5 34.5">
  <g id="noun_Network_1603822" transform="translate(-4 -4)">
    <g id="Group_165" data-name="Group 165" transform="translate(4 4)">
      <path id="Path_199" data-name="Path 199" d="M19,990.861a4.121,4.121,0,0,0,2.2-7.606l1.875-5.894h.047a5.609,5.609,0,0,0,3.984-1.664l4.289,3.75a3.7,3.7,0,0,0-.4,1.664,3.75,3.75,0,1,0,3.75-3.75,3.693,3.693,0,0,0-1.793.457l-4.605-4.031a5.534,5.534,0,0,0-.539-5.144l3.914-3.914a4.46,4.46,0,0,0,2.273.633,4.5,4.5,0,1,0-4.5-4.5,4.446,4.446,0,0,0,.633,2.285l-3.9,3.9a5.594,5.594,0,0,0-5.918-.176l-1.641-1.84a4.075,4.075,0,0,0,.7-2.3,4.125,4.125,0,1,0-4.125,4.125,4.086,4.086,0,0,0,1.7-.375l1.676,1.887a5.586,5.586,0,0,0-1.008,4.5l-7.641,2.344a3.371,3.371,0,1,0,.773,2.145c0-.012,0-.024,0-.035l7.77-2.391a5.71,5.71,0,0,0,2.355,1.945l-1.828,5.73H19a4.125,4.125,0,1,0,0,8.25Zm0-2.25a1.875,1.875,0,1,1,1.875-1.875A1.858,1.858,0,0,1,19,988.611Zm15.75-6a1.5,1.5,0,1,1,1.5-1.5A1.483,1.483,0,0,1,34.75,982.611ZM7.375,978.486A1.125,1.125,0,1,1,8.5,977.361,1.108,1.108,0,0,1,7.375,978.486Zm15.75-3.375a3.375,3.375,0,1,1,3.375-3.375A3.358,3.358,0,0,1,23.125,975.111Zm-7.875-10.5a1.875,1.875,0,1,1,1.875-1.875A1.858,1.858,0,0,1,15.25,964.612Zm18.75-1.5a2.25,2.25,0,1,1,2.25-2.25A2.233,2.233,0,0,1,34,963.112Z" transform="translate(-4 -956.362)" fill="#fff"/>
    </g>
  </g>
</svg>
