<svg xmlns="http://www.w3.org/2000/svg" width="38.172" height="33.93" viewBox="0 0 38.172 33.93">
  <g id="noun_System_Status_63767" data-name="noun_System Status_63767" transform="translate(-5 -10)">
    <g id="Group_168" data-name="Group 168" transform="translate(22.442 16.75)">
      <g id="Group_167" data-name="Group 167" transform="translate(0 0)">
        <g id="Group_166" data-name="Group 166">
          <path id="Path_200" data-name="Path 200" d="M53.142,25.988a1.06,1.06,0,0,0-1.374.6L46.2,40.8a1.06,1.06,0,0,0,1.975.774l5.571-14.216A1.06,1.06,0,0,0,53.142,25.988Z" transform="translate(-46.123 -25.915)" fill="#fff" fill-rule="evenodd"/>
        </g>
      </g>
    </g>
    <g id="Group_171" data-name="Group 171" transform="translate(18.017 20.53)">
      <g id="Group_170" data-name="Group 170">
        <g id="Group_169" data-name="Group 169">
          <path id="Path_201" data-name="Path 201" d="M42.194,46.018,37.727,35.474a1.06,1.06,0,1,0-1.953.827l4.467,10.544a1.06,1.06,0,1,0,1.952-.827Z" transform="translate(-35.69 -34.827)" fill="#fff" fill-rule="evenodd"/>
        </g>
      </g>
    </g>
    <g id="Group_174" data-name="Group 174" transform="translate(9.241 26.117)">
      <g id="Group_173" data-name="Group 173">
        <g id="Group_172" data-name="Group 172">
          <path id="Path_202" data-name="Path 202" d="M21.574,48H16.06a1.06,1.06,0,0,0,0,2.121h5.514a1.06,1.06,0,1,0,0-2.121Z" transform="translate(-15 -48)" fill="#fff" fill-rule="evenodd"/>
        </g>
      </g>
    </g>
    <g id="Group_177" data-name="Group 177" transform="translate(14.952 20.444)">
      <g id="Group_176" data-name="Group 176">
        <g id="Group_175" data-name="Group 175">
          <path id="Path_203" data-name="Path 203" d="M32.832,34.735a1.061,1.061,0,0,0-1.422.477l-2.834,5.7a1.06,1.06,0,0,0,1.9.945l2.834-5.7A1.061,1.061,0,0,0,32.832,34.735Z" transform="translate(-28.465 -34.624)" fill="#fff" fill-rule="evenodd"/>
        </g>
      </g>
    </g>
    <g id="Group_180" data-name="Group 180" transform="translate(27.902 16.814)">
      <g id="Group_179" data-name="Group 179" transform="translate(0 0)">
        <g id="Group_178" data-name="Group 178">
          <path id="Path_204" data-name="Path 204" d="M64.041,35.968l-2.547-8.976a1.272,1.272,0,1,0-2.448.695l2.547,8.977a1.272,1.272,0,0,0,2.448-.7Z" transform="translate(-58.997 -26.066)" fill="#fff" fill-rule="evenodd"/>
        </g>
      </g>
    </g>
    <g id="Group_183" data-name="Group 183" transform="translate(31.296 26.117)">
      <g id="Group_182" data-name="Group 182">
        <g id="Group_181" data-name="Group 181">
          <path id="Path_205" data-name="Path 205" d="M73.574,48H68.06a1.06,1.06,0,1,0,0,2.121h5.514a1.06,1.06,0,0,0,0-2.121Z" transform="translate(-67 -48)" fill="#fff" fill-rule="evenodd"/>
        </g>
      </g>
    </g>
    <g id="Group_186" data-name="Group 186" transform="translate(5 10)">
      <g id="Group_185" data-name="Group 185">
        <g id="Group_184" data-name="Group 184">
          <path id="Path_206" data-name="Path 206" d="M38.931,10H9.241A4.242,4.242,0,0,0,5,14.241V35.448a4.242,4.242,0,0,0,4.241,4.241H38.931a4.242,4.242,0,0,0,4.241-4.241V14.241A4.242,4.242,0,0,0,38.931,10Zm2.121,25.024c0,2.121-.424,2.545-2.545,2.545H9.665a2.249,2.249,0,0,1-2.545-2.545V14.665a2.249,2.249,0,0,1,2.545-2.545H38.506a2.249,2.249,0,0,1,2.545,2.545Z" transform="translate(-5 -10)" fill="#fff" fill-rule="evenodd"/>
        </g>
      </g>
    </g>
    <g id="Group_189" data-name="Group 189" transform="translate(13.483 41.81)">
      <g id="Group_188" data-name="Group 188">
        <g id="Group_187" data-name="Group 187">
          <path id="Path_207" data-name="Path 207" d="M45.146,85H26.06a1.06,1.06,0,1,0,0,2.121H45.146a1.06,1.06,0,1,0,0-2.121Z" transform="translate(-25 -85)" fill="#fff" fill-rule="evenodd"/>
        </g>
      </g>
    </g>
    <g id="Group_192" data-name="Group 192" transform="translate(19.845 40.537)">
      <g id="Group_191" data-name="Group 191">
        <g id="Group_190" data-name="Group 190">
          <path id="Path_208" data-name="Path 208" d="M47.422,82H41.06a1.06,1.06,0,0,0,0,2.121h6.362a1.06,1.06,0,0,0,0-2.121Z" transform="translate(-40 -82)" fill="#fff" fill-rule="evenodd"/>
        </g>
      </g>
    </g>
  </g>
</svg>
