<svg xmlns="http://www.w3.org/2000/svg" width="38.086" height="38.086" viewBox="0 0 38.086 38.086">
  <g id="noun_storage_4217969" transform="translate(-2 -2)">
    <g id="_21_storage" data-name="21 storage" transform="translate(2 2)">
      <path id="Path_212" data-name="Path 212" d="M38.726,15.18H34.645V8.91a1.36,1.36,0,0,0-1.36-1.36h-3.4V3.36A1.36,1.36,0,0,0,28.524,2H13.562A1.36,1.36,0,0,0,12.2,3.36V7.55H8.8a1.36,1.36,0,0,0-1.36,1.36V15.18H3.36A1.36,1.36,0,0,0,2,16.541V38.726a1.36,1.36,0,0,0,1.36,1.36H38.726a1.36,1.36,0,0,0,1.36-1.36V16.541A1.36,1.36,0,0,0,38.726,15.18ZM14.922,4.72H27.164V7.55H14.922Zm-4.761,5.55H31.925v4.91H10.161Zm27.2,27.1H4.72V17.9H37.366ZM29.2,24.852a1.36,1.36,0,0,1-1.36,1.36h-13.6a1.36,1.36,0,1,1,0-2.72h13.6A1.36,1.36,0,0,1,29.2,24.852Z" transform="translate(-2 -2)" fill="#fff"/>
    </g>
  </g>
</svg>
