<svg xmlns="http://www.w3.org/2000/svg" width="16.038" height="18.283" viewBox="0 0 16.038 18.283">
  <g id="noun_rise_2911864" transform="translate(-7 -3)">
    <path id="Path_167" data-name="Path 167" d="M31.321,8.774h1.6V20.962a.321.321,0,0,0,.321.321h3.849a.321.321,0,0,0,.321-.321V8.774h1.6a.321.321,0,0,0,.257-.513L35.426,3.128a.321.321,0,0,0-.513,0L31.064,8.26a.321.321,0,0,0,.257.513Z" transform="translate(-16.302 0)" fill="#fff"/>
    <path id="Path_168" data-name="Path 168" d="M7.321,22.774h1.6v7.7a.321.321,0,0,0,.321.321h3.849a.321.321,0,0,0,.321-.321v-7.7h1.6a.321.321,0,0,0,.257-.513l-3.849-5.132a.321.321,0,0,0-.513,0L7.064,22.26a.321.321,0,0,0,.257.513Z" transform="translate(0 -9.509)" fill="#fff"/>
  </g>
</svg>
