<svg xmlns="http://www.w3.org/2000/svg" width="22.17" height="20.812" viewBox="0 0 22.17 20.812">
  <g id="noun_loading_23526" transform="translate(0 -3.061)">
    <g id="Group_163" data-name="Group 163" transform="translate(0 3.061)">
      <g id="Group_162" data-name="Group 162" transform="translate(0 0)">
        <g id="Group_161" data-name="Group 161">
          <path id="Path_174" data-name="Path 174" d="M83.385,39.267v.02a2.365,2.365,0,0,1-4.727-.005v-.019a2.366,2.366,0,1,1,4.729-.176C83.387,39.145,83.387,39.209,83.385,39.267Z" transform="translate(-61.217 -29.326)" fill="#fff"/>
          <path id="Path_175" data-name="Path 175" d="M76.551,64.855l-.011.015a2.143,2.143,0,0,1-3.55-2.395L73,62.46a2.143,2.143,0,1,1,3.648,2.251C76.619,64.759,76.584,64.81,76.551,64.855Z" transform="translate(-56.562 -48.499)" fill="#fff"/>
          <path id="Path_176" data-name="Path 176" d="M57.24,81.911l-.017.006a1.919,1.919,0,0,1-1.446-3.553l.017-.008a1.921,1.921,0,0,1,1.593,3.5C57.34,81.873,57.288,81.893,57.24,81.911Z" transform="translate(-42.538 -61.528)" fill="#fff"/>
          <path id="Path_177" data-name="Path 177" d="M32.4,84.96l-.018,0a1.7,1.7,0,0,1,.69-3.32l.018,0a1.7,1.7,0,1,1-.559,3.349C32.489,84.98,32.443,84.97,32.4,84.96Z" transform="translate(-24.202 -64.198)" fill="#fff"/>
          <path id="Path_178" data-name="Path 178" d="M10.831,73.369l-.012-.014A1.474,1.474,0,0,1,12.927,71.3l.013.013a1.475,1.475,0,0,1-2.025,2.146C10.887,73.428,10.857,73.4,10.831,73.369Z" transform="translate(-8.126 -55.858)" fill="#fff"/>
          <path id="Path_179" data-name="Path 179" d="M.015,51.51l0-.019a1.251,1.251,0,0,1,2.46-.449l0,.018a1.252,1.252,0,1,1-2.443.55C.026,51.578.02,51.543.015,51.51Z" transform="translate(0 -39.646)" fill="#fff"/>
          <path id="Path_180" data-name="Path 180" d="M3.778,27.151l.009-.016a1.028,1.028,0,0,1,1.884.82l-.007.017a1.029,1.029,0,0,1-1.919-.745C3.756,27.2,3.767,27.175,3.778,27.151Z" transform="translate(-2.861 -21.346)" fill="#fff"/>
          <path id="Path_181" data-name="Path 181" d="M20.974,8.882l.015-.009a.805.805,0,0,1,.869,1.355l-.015.01a.806.806,0,0,1-.925-1.32Z" transform="translate(-16.014 -7.499)" fill="#fff"/>
          <path id="Path_182" data-name="Path 182" d="M45.91,3.062h.019A.583.583,0,0,1,45.9,4.227h-.019a.583.583,0,1,1-.019-1.167Z" transform="translate(-35.251 -3.061)" fill="#fff"/>
          <path id="Path_183" data-name="Path 183" d="M70.311,11.779l.014.011a.36.36,0,0,1-.415.588l-.014-.01a.36.36,0,1,1,.392-.605Z" transform="translate(-54.271 -9.788)" fill="#fff"/>
          <path id="Path_184" data-name="Path 184" d="M86.184,32.24l.006.017a.137.137,0,0,1-.256.1l-.007-.016a.137.137,0,1,1,.253-.109A.048.048,0,0,1,86.184,32.24Z" transform="translate(-66.868 -25.698)" fill="#fff"/>
        </g>
      </g>
    </g>
  </g>
</svg>
