<svg xmlns="http://www.w3.org/2000/svg" width="28.373" height="20.875" viewBox="0 0 28.373 20.875">
  <g id="noun_leaf_3483318" transform="translate(-12.375 -22)">
    <g id="Group_159" data-name="Group 159" transform="translate(12.375 22)">
      <path id="Path_170" data-name="Path 170" d="M60.684,22S49.033,24.184,46.121,32.558a7.75,7.75,0,0,0,1.62,8.163.558.558,0,0,0,.881-.091c2.96-5.887,7.329-12.077,9.7-14.327A71.634,71.634,0,0,0,53.4,34.015a66.705,66.705,0,0,0-3.415,7.4.61.61,0,0,0,.295.826c2.075.826,8.96,2.41,11.068-7.322C62.868,29.646,60.684,22,60.684,22Z" transform="translate(-33.514 -22)" fill="#fff"/>
      <path id="Path_171" data-name="Path 171" d="M12.493,46.72c-.266,3.062-.215,6.168,1.566,8.84,1.456,2.184,4.733,3.641,6.892,2.414.335-.189.324-.528.222-.9-.925-3.335-4-5.476-4.93-6.612.055-.044,2.184,1.092,5.876,5.774a.568.568,0,0,0,.939-.215,5.778,5.778,0,0,0-.623-4.831C20.591,48.122,16.422,46.709,12.493,46.72Z" transform="translate(-12.375 -37.72)" fill="#fff"/>
    </g>
  </g>
</svg>
