<svg xmlns="http://www.w3.org/2000/svg" width="10.927" height="20.875" viewBox="0 0 10.927 20.875">
  <g id="noun_Server_991267" transform="translate(-32.7 -17)">
    <g id="Group_160" data-name="Group 160" transform="translate(32.7 17)">
      <rect id="Rectangle_294" data-name="Rectangle 294" width="10.864" height="0.916" transform="translate(0.032 11.78)" fill="#fff"/>
      <rect id="Rectangle_295" data-name="Rectangle 295" width="10.864" height="0.916" transform="translate(0.032 13.58)" fill="#fff"/>
      <rect id="Rectangle_296" data-name="Rectangle 296" width="10.864" height="0.916" transform="translate(0.032 15.411)" fill="#fff"/>
      <rect id="Rectangle_297" data-name="Rectangle 297" width="10.864" height="0.916" transform="translate(0.032 17.211)" fill="#fff"/>
      <path id="Path_172" data-name="Path 172" d="M43.664,77.3H32.8v1.295a.532.532,0,0,0,.537.537h9.822a.532.532,0,0,0,.537-.537L43.664,77.3Z" transform="translate(-32.768 -58.257)" fill="#fff"/>
      <path id="Path_173" data-name="Path 173" d="M43.564,17.537A.467.467,0,0,0,43.09,17H33.237a.532.532,0,0,0-.537.537V27.9H43.564V17.537Zm-5.4,8.527a.442.442,0,1,1,.442-.442A.432.432,0,0,1,38.163,26.064Zm0-4.548a.916.916,0,1,1,.916-.916A.9.9,0,0,1,38.163,21.516Z" transform="translate(-32.7 -17)" fill="#fff"/>
      <circle id="Ellipse_26" data-name="Ellipse 26" cx="0.442" cy="0.442" r="0.442" transform="translate(5.021 3.19)" fill="#fff"/>
    </g>
  </g>
</svg>
