<svg xmlns="http://www.w3.org/2000/svg" width="25.143" height="25.142" viewBox="0 0 25.143 25.142">
  <g id="noun_Apps_4203652" transform="translate(-0.264 -0.266)">
    <g id="Group_164" data-name="Group 164" transform="translate(0.264 0.266)">
      <path id="Path_186" data-name="Path 186" d="M2.782,288.8a2.529,2.529,0,0,0-2.518,2.512v6.706a2.529,2.529,0,0,0,2.518,2.512H9.488A2.523,2.523,0,0,0,12,298.017v-6.706A2.523,2.523,0,0,0,9.488,288.8Zm0,1.67H9.488a.819.819,0,0,1,.835.841v6.706a.814.814,0,0,1-.835.835H2.782a.819.819,0,0,1-.841-.835v-6.706A.824.824,0,0,1,2.782,290.469Z" transform="translate(-0.264 -288.799)" fill="#fff"/>
      <path id="Path_187" data-name="Path 187" d="M7.01,288.8A2.523,2.523,0,0,0,4.5,291.311v6.706a2.523,2.523,0,0,0,2.512,2.512h6.706a2.523,2.523,0,0,0,2.512-2.512v-6.706a2.523,2.523,0,0,0-2.512-2.512Zm0,1.67h6.706a.824.824,0,0,1,.841.841v6.706a.819.819,0,0,1-.841.835H7.01a.814.814,0,0,1-.835-.835v-6.706A.819.819,0,0,1,7.01,290.469Z" transform="translate(8.915 -288.799)" fill="#fff"/>
      <path id="Path_188" data-name="Path 188" d="M2.782,293.031a2.529,2.529,0,0,0-2.518,2.512v6.706a2.534,2.534,0,0,0,2.518,2.518H9.488A2.529,2.529,0,0,0,12,302.249v-6.706a2.523,2.523,0,0,0-2.512-2.512Zm0,1.677H9.488a.814.814,0,0,1,.835.835v6.706a.819.819,0,0,1-.835.841H2.782a.824.824,0,0,1-.841-.841v-6.706A.819.819,0,0,1,2.782,294.708Z" transform="translate(-0.264 -279.626)" fill="#fff"/>
      <path id="Path_189" data-name="Path 189" d="M7.01,293.031A2.523,2.523,0,0,0,4.5,295.543v6.706a2.529,2.529,0,0,0,2.512,2.518h6.706a2.529,2.529,0,0,0,2.512-2.518v-6.706a2.523,2.523,0,0,0-2.512-2.512Zm0,1.677h6.706a.819.819,0,0,1,.841.835v6.706a.824.824,0,0,1-.841.841H7.01a.819.819,0,0,1-.835-.841v-6.706A.814.814,0,0,1,7.01,294.708Z" transform="translate(8.915 -279.626)" fill="#fff"/>
    </g>
  </g>
</svg>
