<svg xmlns="http://www.w3.org/2000/svg" width="34.791" height="24" viewBox="0 0 34.791 24">
  <g id="noun_desktops_671427" transform="translate(-12.55 -22.12)">
    <path id="Path_190" data-name="Path 190" d="M50.491,22.12H23.5a1.95,1.95,0,0,0-1.95,1.95v16.2a1.95,1.95,0,0,0,1.95,1.95h26.99a1.95,1.95,0,0,0,1.95-1.95V24.07a1.95,1.95,0,0,0-1.95-1.95ZM28.965,40.92h-3.1a1.915,1.915,0,1,1,3.1,0Zm22.176-.65a.65.65,0,0,1-.65.65H30.412a3.155,3.155,0,0,0,.143-1.7h18.2a.65.65,0,0,0,0-1.3H30.3a.646.646,0,0,0-.256.052,3.211,3.211,0,0,0-5.634,2.947H23.5a.65.65,0,0,1-.65-.65V24.07a.65.65,0,0,1,.65-.65h26.99a.65.65,0,0,1,.65.65Z" transform="translate(-5.1 0)" fill="#fff"/>
    <path id="Path_191" data-name="Path 191" d="M33.434,29.75H30.4a.65.65,0,0,0-.65.65v3.034a.65.65,0,0,0,.65.65h3.034a.65.65,0,0,0,.65-.65V30.4A.65.65,0,0,0,33.434,29.75Zm-.65,3.034H31.05V31.05h1.733Z" transform="translate(-9.746 -4.323)" fill="#fff"/>
    <path id="Path_192" data-name="Path 192" d="M48.434,29.75H45.4a.65.65,0,0,0-.65.65v3.034a.65.65,0,0,0,.65.65h3.034a.65.65,0,0,0,.65-.65V30.4A.65.65,0,0,0,48.434,29.75Zm-.65,3.034H46.05V31.05h1.733Z" transform="translate(-18.245 -4.323)" fill="#fff"/>
    <path id="Path_193" data-name="Path 193" d="M63.434,29.75H60.4a.65.65,0,0,0-.65.65v3.034a.65.65,0,0,0,.65.65h3.034a.65.65,0,0,0,.65-.65V30.4A.65.65,0,0,0,63.434,29.75Zm-.65,3.034H61.05V31.05h1.733Z" transform="translate(-26.745 -4.323)" fill="#fff"/>
    <path id="Path_194" data-name="Path 194" d="M33.434,42.75H30.4a.65.65,0,0,0-.65.65v3.034a.65.65,0,0,0,.65.65h3.034a.65.65,0,0,0,.65-.65V43.4A.65.65,0,0,0,33.434,42.75Zm-.65,3.034H31.05V44.05h1.733Z" transform="translate(-9.746 -11.69)" fill="#fff"/>
    <path id="Path_195" data-name="Path 195" d="M42.791,48.62a.65.65,0,0,0-.65.65.65.65,0,0,1-.65.65H14.5a.65.65,0,0,1-.65-.65V33.07a.65.65,0,0,1,.65-.65.65.65,0,1,0,0-1.3,1.95,1.95,0,0,0-1.95,1.95v16.2a1.95,1.95,0,0,0,1.95,1.95h26.99a1.95,1.95,0,0,0,1.95-1.95A.65.65,0,0,0,42.791,48.62Z" transform="translate(0 -5.1)" fill="#fff"/>
  </g>
</svg>
