<svg xmlns="http://www.w3.org/2000/svg" width="34.5" height="34.5" viewBox="0 0 34.5 34.5">
  <g id="noun_hardware_3189215" transform="translate(-16 -16)">
    <path id="Path_196" data-name="Path 196" d="M48.775,45.325A1.73,1.73,0,0,0,50.5,43.6V21.75a1.73,1.73,0,0,0-1.725-1.725h-1.15v-2.3a1.725,1.725,0,0,0-3.45,0v2.3H22.325v-2.3a1.725,1.725,0,0,0-3.45,0v2.3h-1.15A1.73,1.73,0,0,0,16,21.75V43.6a1.73,1.73,0,0,0,1.725,1.725H18.3V47.05h-.575a1.725,1.725,0,1,0,0,3.45h4.6a1.725,1.725,0,1,0,0-3.45H21.75V45.325h23V47.05h-.575a1.725,1.725,0,0,0,0,3.45h4.6a1.725,1.725,0,1,0,0-3.45H48.2V45.325Zm-3.45-27.6a.575.575,0,0,1,1.15,0v2.3h-1.15Zm-25.3,0a.575.575,0,0,1,1.15,0v2.3h-1.15Zm2.3,30.475a.575.575,0,1,1,0,1.15h-4.6a.575.575,0,1,1,0-1.15ZM19.45,47.05V45.325H20.6V47.05ZM48.775,48.2a.575.575,0,1,1,0,1.15h-4.6a.575.575,0,0,1,0-1.15ZM45.9,47.05V45.325h1.15V47.05ZM17.725,44.175a.577.577,0,0,1-.575-.575V21.75a.577.577,0,0,1,.575-.575h31.05a.577.577,0,0,1,.575.575V43.6a.577.577,0,0,1-.575.575Z" fill="#fff"/>
    <path id="Path_197" data-name="Path 197" d="M213.75,200.647V200h-4.6v.647a.5.5,0,0,1-.5.5H208v4.6h.647a.5.5,0,0,1,.5.5v.647h4.6v-.647a.5.5,0,0,1,.5-.5h.647v-4.6h-.647A.5.5,0,0,1,213.75,200.647Zm0,4.032a1.659,1.659,0,0,0-1.071,1.071h-2.458a1.658,1.658,0,0,0-1.071-1.071v-2.458a1.659,1.659,0,0,0,1.071-1.071h2.458a1.659,1.659,0,0,0,1.071,1.071Z" transform="translate(-178.2 -170.775)" fill="#fff"/>
    <path id="Path_198" data-name="Path 198" d="M76.126,115.314a1.741,1.741,0,0,0-.74.165l-1.394-1.387a1.724,1.724,0,0,0-1.222-.5H68.651v-1.15h2.976a1.724,1.724,0,0,0,1.222-.5l1.61-1.61a1.72,1.72,0,1,0-.6-1.021l-1.826,1.818a.57.57,0,0,1-.41.165H68.651v-1.15a1.5,1.5,0,0,0-.029-.309l2.163-2.163a1.725,1.725,0,1,0-.812-2.3,1.739,1.739,0,0,0,0,1.488L68.026,108.8a1.742,1.742,0,0,0-1.092-.4h-2.3v-1.15a.577.577,0,0,1,.575-.575h.438a1.717,1.717,0,1,0-.446-1.15,1.73,1.73,0,0,0-1.725,1.725v1.15h-1.15v-1.15a1.73,1.73,0,0,0-1.725-1.725,1.737,1.737,0,1,0-.446,1.15h.438a.577.577,0,0,1,.575.575v1.15h-2.3a1.687,1.687,0,0,0-1.093.4l-1.948-1.948a1.725,1.725,0,1,0-2.3.812,1.739,1.739,0,0,0,1.488,0l2.163,2.163a1.5,1.5,0,0,0-.029.309v1.15H54.176a.582.582,0,0,1-.41-.165L51.94,109.3a1.734,1.734,0,1,0-.6,1.021l1.61,1.61a1.724,1.724,0,0,0,1.222.5h2.983v1.15H53.026a1.724,1.724,0,0,0-1.222.5l-1.387,1.387a1.725,1.725,0,1,0,.812,2.3,1.739,1.739,0,0,0,0-1.488l1.387-1.387a.57.57,0,0,1,.41-.165h4.126v1.15h-2.3a1.73,1.73,0,0,0-1.725,1.725v1.251a1.723,1.723,0,1,0,1.15,0v-1.243a.577.577,0,0,1,.575-.575h2.3v1.15a1.73,1.73,0,0,0,1.725,1.725h2.3v1.15a.577.577,0,0,1-.575.575h-.438a1.717,1.717,0,1,0,.446,1.15,1.73,1.73,0,0,0,1.725-1.725v-1.15h1.15v1.15a1.73,1.73,0,0,0,1.725,1.725,1.737,1.737,0,1,0,.446-1.15H65.2a.577.577,0,0,1-.575-.575v-1.15h2.3a1.73,1.73,0,0,0,1.725-1.725v-1.15h2.3a.577.577,0,0,1,.575.575v1.251a1.723,1.723,0,1,0,1.15,0v-1.251a1.73,1.73,0,0,0-1.725-1.725h-2.3v-1.15h4.126a.582.582,0,0,1,.41.165l1.387,1.387a1.725,1.725,0,1,0,2.3-.812A1.8,1.8,0,0,0,76.126,115.314Zm-.575-6.9a.575.575,0,1,1-.575.575A.577.577,0,0,1,75.551,108.414Zm-4.025-2.875a.575.575,0,1,1-.575.575A.577.577,0,0,1,71.526,105.539Zm-4.6-.575a.575.575,0,1,1-.575.575A.577.577,0,0,1,66.926,104.964Zm-8.05,1.15a.575.575,0,1,1,.575-.575A.577.577,0,0,1,58.876,106.114Zm-4.6.575a.575.575,0,1,1,.575-.575A.577.577,0,0,1,54.276,106.689Zm-4.025,2.875a.575.575,0,1,1,.575-.575A.577.577,0,0,1,50.251,109.564Zm-.575,8.05a.575.575,0,1,1,.575-.575A.577.577,0,0,1,49.676,117.614Zm4.025,3.45a.575.575,0,1,1,.575-.575A.577.577,0,0,1,53.7,121.064Zm5.175,2.3a.575.575,0,1,1,.575-.575A.577.577,0,0,1,58.876,123.364Zm8.05-1.15a.575.575,0,1,1-.575.575A.577.577,0,0,1,66.926,122.214Zm.575-4.025a.577.577,0,0,1-.575.575h-8.05a.577.577,0,0,1-.575-.575v-8.05a.577.577,0,0,1,.575-.575h8.05a.577.577,0,0,1,.575.575Zm4.6,1.725a.575.575,0,1,1-.575.575A.577.577,0,0,1,72.1,119.914Zm4.025-2.3a.575.575,0,1,1,.575-.575A.577.577,0,0,1,76.126,117.614Z" transform="translate(-29.651 -81.489)" fill="#fff"/>
  </g>
</svg>
