<svg xmlns="http://www.w3.org/2000/svg" width="28" height="20.004" viewBox="0 0 28 20.004">
  <g id="noun_joystick_2097396" transform="translate(-2 -6)">
    <g id="Group_294" data-name="Group 294">
      <path id="Path_403" data-name="Path 403" d="M16,6A14,14,0,0,0,2,20a6,6,0,0,0,11.38,2.66,2.9,2.9,0,0,1,5.24,0A6,6,0,0,0,30,20,14,14,0,0,0,16,6Zm8,18a4,4,0,0,1-3.59-2.23,4.9,4.9,0,0,0-8.82,0A4,4,0,0,1,4,20a12,12,0,0,1,24,0A4,4,0,0,1,24,24Z" fill="#83a9ac"/>
      <path id="Path_404" data-name="Path 404" d="M21,20a3,3,0,1,0,3-3A3,3,0,0,0,21,20Zm4,0a1,1,0,1,1-1-1A1,1,0,0,1,25,20Z" fill="#83a9ac"/>
      <path id="Path_405" data-name="Path 405" d="M10,19H9V18a1,1,0,0,0-2,0v1H6a1,1,0,0,0,0,2H7v1a1,1,0,0,0,2,0V21h1a1,1,0,0,0,0-2Z" fill="#83a9ac"/>
      <path id="Path_406" data-name="Path 406" d="M14,16H12a1,1,0,0,0,0,2h2a1,1,0,0,0,0-2Z" fill="#83a9ac"/>
      <path id="Path_407" data-name="Path 407" d="M20,16H18a1,1,0,0,0,0,2h2a1,1,0,0,0,0-2Z" fill="#83a9ac"/>
    </g>
  </g>
</svg>
