<svg xmlns="http://www.w3.org/2000/svg" width="18" height="22" viewBox="0 0 18 22">
  <g id="noun_Location_4234074" transform="translate(-3 -1)">
    <path id="Path_408" data-name="Path 408" d="M11.776,22.447a.5.5,0,0,0,.448,0C12.562,22.278,20.5,18.215,20.5,10a8.5,8.5,0,0,0-17,0C3.5,18.215,11.438,22.278,11.776,22.447ZM12,2.5A7.508,7.508,0,0,1,19.5,10c0,6.85-6.229,10.715-7.5,11.432C10.729,20.715,4.5,16.85,4.5,10A7.508,7.508,0,0,1,12,2.5Z" fill="#83a9ac" stroke="#83a9ac" stroke-width="1"/>
    <path id="Path_409" data-name="Path 409" d="M12,14.5A4.5,4.5,0,1,0,7.5,10,4.505,4.505,0,0,0,12,14.5Zm0-8A3.5,3.5,0,1,1,8.5,10,3.5,3.5,0,0,1,12,6.5Z" fill="#83a9ac" stroke="#83a9ac" stroke-width="1"/>
  </g>
</svg>
