<svg xmlns="http://www.w3.org/2000/svg" width="17.969" height="22" viewBox="0 0 17.969 22">
  <g id="noun_doc_3888294" transform="translate(0.25 0.25)">
    <path id="Path_410" data-name="Path 410" d="M6.672,24a.672.672,0,0,0,0,1.344H9.359a.672.672,0,0,0,0-1.344Z" transform="translate(-1.969 -7.875)" fill="#83a9ac" stroke="#83a9ac" stroke-width="0.5"/>
    <path id="Path_411" data-name="Path 411" d="M6,19.672A.672.672,0,0,1,6.672,19h5.375a.672.672,0,0,1,0,1.344H6.672A.672.672,0,0,1,6,19.672Z" transform="translate(-1.969 -6.234)" fill="#83a9ac" stroke="#83a9ac" stroke-width="0.5"/>
    <path id="Path_412" data-name="Path 412" d="M6.672,14a.672.672,0,0,0,0,1.344h8.063a.672.672,0,0,0,0-1.344Z" transform="translate(-1.969 -4.594)" fill="#83a9ac" stroke="#83a9ac" stroke-width="0.5"/>
    <path id="Path_413" data-name="Path 413" d="M17.469,7.4V7.391c0-.014,0-.028,0-.042,0,.016,0,.032,0,.048l-7.3-7.39A.671.671,0,0,0,10.078,0H3.359A3.359,3.359,0,0,0,0,3.359V18.141A3.359,3.359,0,0,0,3.359,21.5h10.75a3.359,3.359,0,0,0,3.359-3.359ZM9.406,4.7a3.359,3.359,0,0,0,3.359,3.359h3.359V18.141a2.016,2.016,0,0,1-2.016,2.016H3.359a2.016,2.016,0,0,1-2.016-2.016V3.359A2.016,2.016,0,0,1,3.359,1.344H9.406ZM10.75,2.294l4.425,4.425H12.766A2.016,2.016,0,0,1,10.75,4.7Z" transform="translate(0 0)" fill="#83a9ac" stroke="#83a9ac" stroke-width="0.5" fill-rule="evenodd"/>
  </g>
</svg>
