<svg xmlns="http://www.w3.org/2000/svg" width="21.82" height="21.504" viewBox="0 0 21.82 21.504">
  <g id="noun_Euro_2596639" transform="translate(-33.482 -36.662)">
    <g id="Group_302" data-name="Group 302" transform="translate(33.482 36.662)">
      <g id="Group_296" data-name="Group 296" transform="translate(4.898 0)">
        <g id="Group_295" data-name="Group 295">
          <path id="Path_414" data-name="Path 414" d="M145.89,54.461c-.035.025-.151.116.01-.005-.03.025-.066.05-.1.076-.076.055-.151.111-.232.166-.156.106-.312.212-.474.307a10.065,10.065,0,0,1-1.008.529c-.015.01-.141.066-.03.015s-.04.015-.066.025c-.076.03-.151.06-.227.086-.191.071-.388.136-.585.191a11.032,11.032,0,0,1-1.129.252c-.02.005-.161.02-.03.005s-.04.005-.076.01c-.086.01-.166.015-.252.025q-.317.023-.635.03a7.935,7.935,0,0,1-.978-.045c-.066-.005-.136-.02-.2-.02.282.01.045.005-.03-.005-.166-.025-.333-.055-.494-.091a7.871,7.871,0,0,1-.9-.247c-.136-.045-.272-.091-.4-.146-.035-.015-.207-.06-.212-.086,0-.005.191.086.091.035-.05-.025-.1-.045-.151-.066a8.263,8.263,0,0,1-.811-.423c-.262-.156-.519-.322-.766-.5-.03-.025-.146-.081-.156-.116.005.01.191.151.05.035l-.076-.06c-.126-.106-.252-.212-.373-.322q-.34-.31-.65-.65c-.1-.106-.191-.212-.282-.322-.05-.06-.1-.121-.146-.181-.015-.02-.086-.116-.005,0s-.005-.005-.02-.03a10.53,10.53,0,0,1-.967-1.6c-.035-.071-.066-.141-.1-.212-.015-.035-.121-.277-.055-.126s-.04-.1-.05-.131c-.03-.076-.055-.151-.086-.222q-.166-.453-.287-.922c-.081-.317-.146-.635-.2-.957l-.015-.106c-.03-.181.01.03.005.055a2.062,2.062,0,0,0-.03-.247c-.015-.166-.03-.333-.04-.5-.015-.338-.02-.675-.005-1.013.005-.156.015-.312.03-.464.005-.081.015-.166.025-.247.03-.252-.025.161.01-.081a10.207,10.207,0,0,1,.469-1.884c.05-.141.1-.277.156-.413.066-.166-.081.176.02-.04.035-.081.076-.166.111-.247.136-.282.282-.559.443-.831s.333-.524.514-.776c.02-.025.04-.055.06-.081.06-.086.005-.081-.035.045.015-.05.091-.111.126-.156.106-.126.212-.252.322-.378q.31-.34.65-.65c.106-.1.212-.191.322-.282.06-.05.121-.1.176-.146.086-.076-.076.06-.076.055.015-.035.1-.076.131-.1a8.869,8.869,0,0,1,1.547-.917c.071-.03.141-.06.212-.1.121-.055-.186.071-.06.025.03-.01.06-.025.091-.035.141-.055.287-.111.433-.161a9,9,0,0,1,.892-.252c.151-.035.307-.066.459-.091.076-.015.156-.025.232-.035.116-.02-.106.015-.1.015a1.248,1.248,0,0,0,.136-.015,8.7,8.7,0,0,1,.957-.05c.2,0,.4.005.6.02.086.005.171.015.257.02.055.005.111.01.166.02.111.01.071.005-.015-.005a5.926,5.926,0,0,1,1.144.242c.186.05.368.111.549.176.076.025.156.055.232.086l.151.06c-.081-.03-.111-.05-.015-.005a9.742,9.742,0,0,1,1.018.529c.161.1.322.2.484.312l.2.141c.045.03.086.066.131.1-.03-.02-.156-.121-.01-.005a1.033,1.033,0,0,0,1.426,0,1.019,1.019,0,0,0,0-1.426,9.946,9.946,0,0,0-9.372-1.8,10.488,10.488,0,0,0-6.137,5.452,11.27,11.27,0,0,0-.428,8.646,10.64,10.64,0,0,0,5.558,6.077,10.017,10.017,0,0,0,9.276-.6,11.275,11.275,0,0,0,1.129-.816,1.014,1.014,0,0,0,0-1.426,1.045,1.045,0,0,0-1.431,0Z" transform="translate(-130.693 -36.662)" fill="#83a9ac"/>
        </g>
      </g>
      <g id="Group_301" data-name="Group 301" transform="translate(0 7.343)">
        <g id="Group_298" data-name="Group 298">
          <g id="Group_297" data-name="Group 297">
            <path id="Path_415" data-name="Path 415" d="M34.491,184.415H46.634a1.008,1.008,0,0,0,0-2.016H34.491a1.008,1.008,0,0,0,0,2.016Z" transform="translate(-33.482 -182.4)" fill="#83a9ac"/>
          </g>
        </g>
        <g id="Group_300" data-name="Group 300" transform="translate(0 4.807)">
          <g id="Group_299" data-name="Group 299">
            <path id="Path_416" data-name="Path 416" d="M34.491,279.815H46.634a1.008,1.008,0,1,0,0-2.016H34.491a1.008,1.008,0,1,0,0,2.016Z" transform="translate(-33.482 -277.8)" fill="#83a9ac"/>
          </g>
        </g>
      </g>
    </g>
  </g>
</svg>
