<svg xmlns="http://www.w3.org/2000/svg" width="17.416" height="14.509" viewBox="0 0 17.416 14.509">
  <path id="Icon_ionic-ios-share-alt" data-name="Icon ionic-ios-share-alt" d="M21.763,12.844l-6.4-5.985a.327.327,0,0,0-.254-.109c-.2.009-.453.15-.453.363v3a.194.194,0,0,1-.163.186c-6.362.975-9.042,5.736-9.989,10.678-.036.195.227.376.349.222a11.564,11.564,0,0,1,9.613-4.87.224.224,0,0,1,.19.218V19.5a.389.389,0,0,0,.657.24l6.443-6.09a.5.5,0,0,0,.159-.381A.608.608,0,0,0,21.763,12.844Z" transform="translate(-4.502 -6.749)" fill="#272639"/>
</svg>
