<svg xmlns="http://www.w3.org/2000/svg" width="15.873" height="18.141" viewBox="0 0 15.873 18.141">
  <path id="Icon_metro-attachment" data-name="Icon metro-attachment" d="M14.764,7.722l-1.151-1.15L7.859,12.325a2.441,2.441,0,0,0,3.452,3.452l6.905-6.9A4.068,4.068,0,0,0,12.462,3.12l-7.25,7.249-.016.015a5.674,5.674,0,0,0,8.025,8.024l.015-.016h0l4.949-4.948-1.151-1.15-4.949,4.947-.015.015a4.047,4.047,0,0,1-5.724-5.722l.016-.015h0L13.613,4.27a2.441,2.441,0,1,1,3.453,3.452l-6.905,6.9a.814.814,0,0,1-1.151-1.15l5.754-5.754Z" transform="translate(-3.535 -1.928)" fill="#83a9ac"/>
</svg>
