<svg id="_05-web_browser" data-name="05-web browser" xmlns="http://www.w3.org/2000/svg" width="71.271" height="71.272" viewBox="0 0 71.271 71.272">
  <path id="Path_10" data-name="Path 10" d="M32.666,50.727H4.455A4.455,4.455,0,0,1,0,46.273V24H2.97V46.273a1.485,1.485,0,0,0,1.485,1.485H32.666Z" transform="translate(0 11.636)" fill="#272639"/>
  <path id="Path_11" data-name="Path 11" d="M62.363,29.7h-2.97V4.455A1.485,1.485,0,0,0,57.909,2.97H4.455A1.485,1.485,0,0,0,2.97,4.455v7.424H0V4.455A4.455,4.455,0,0,1,4.455,0H57.909a4.455,4.455,0,0,1,4.455,4.455Z" fill="#272639"/>
  <rect id="Rectangle_16" data-name="Rectangle 16" width="57.341" height="2.956" transform="translate(1.773 9.202)" fill="#272639"/>
  <path id="Path_12" data-name="Path 12" d="M44.273,60.606H38.333a1.485,1.485,0,0,1-1.485-1.485V55.459a14.7,14.7,0,0,1-2.4-1l-2.591,2.59a1.485,1.485,0,0,1-2.1,0l-4.2-4.2a1.485,1.485,0,0,1,0-2.1l2.591-2.591a14.637,14.637,0,0,1-1-2.4H23.485A1.485,1.485,0,0,1,22,44.273V38.333a1.485,1.485,0,0,1,1.485-1.485h3.662a14.637,14.637,0,0,1,1-2.4l-2.591-2.591a1.485,1.485,0,0,1,0-2.1l4.2-4.2a1.485,1.485,0,0,1,2.1,0l2.591,2.591a14.638,14.638,0,0,1,2.4-1V23.485A1.485,1.485,0,0,1,38.333,22h5.939a1.485,1.485,0,0,1,1.485,1.485v3.662a14.637,14.637,0,0,1,2.4,1l2.591-2.591a1.485,1.485,0,0,1,2.1,0l4.2,4.2a1.485,1.485,0,0,1,0,2.1L54.46,34.444a14.638,14.638,0,0,1,1,2.4h3.662a1.485,1.485,0,0,1,1.485,1.485v5.939a1.485,1.485,0,0,1-1.485,1.485H55.459a14.638,14.638,0,0,1-1,2.4l2.591,2.591a1.485,1.485,0,0,1,0,2.1l-4.2,4.2a1.485,1.485,0,0,1-2.1,0l-2.591-2.59a14.7,14.7,0,0,1-2.4,1v3.662A1.485,1.485,0,0,1,44.273,60.606Zm-4.455-2.97h2.97V54.325a1.485,1.485,0,0,1,1.155-1.449,11.749,11.749,0,0,0,3.673-1.525,1.485,1.485,0,0,1,1.841.206L51.8,53.9l2.1-2.1-2.345-2.345a1.485,1.485,0,0,1-.2-1.843,11.818,11.818,0,0,0,1.532-3.672,1.485,1.485,0,0,1,1.44-1.155h3.311v-2.97H54.325a1.485,1.485,0,0,1-1.448-1.155,11.818,11.818,0,0,0-1.525-3.672,1.485,1.485,0,0,1,.2-1.843L53.9,30.8l-2.1-2.1-2.345,2.345a1.485,1.485,0,0,1-1.84.206,11.781,11.781,0,0,0-3.675-1.525,1.485,1.485,0,0,1-1.155-1.449V24.97h-2.97v3.311a1.485,1.485,0,0,1-1.155,1.449,11.781,11.781,0,0,0-3.675,1.525,1.485,1.485,0,0,1-1.84-.206L30.8,28.7l-2.1,2.1,2.345,2.345a1.485,1.485,0,0,1,.2,1.843,11.818,11.818,0,0,0-1.525,3.672,1.485,1.485,0,0,1-1.448,1.155H24.97v2.97h3.311a1.485,1.485,0,0,1,1.448,1.155,11.818,11.818,0,0,0,1.525,3.672,1.485,1.485,0,0,1-.2,1.843L28.7,51.8l2.1,2.1,2.345-2.345a1.485,1.485,0,0,1,1.841-.206,11.75,11.75,0,0,0,3.673,1.525,1.485,1.485,0,0,1,1.155,1.449Z" transform="translate(10.666 10.666)" fill="#e81747"/>
  <path id="Path_13" data-name="Path 13" d="M36.939,42.879a5.939,5.939,0,1,1,5.939-5.939A5.939,5.939,0,0,1,36.939,42.879Zm0-8.909a2.97,2.97,0,1,0,2.97,2.97A2.97,2.97,0,0,0,36.939,33.97Z" transform="translate(15.03 15.03)" fill="#272639"/>
  <path id="Path_14" data-name="Path 14" d="M25.242,35.242a1.485,1.485,0,0,1-1.05-.435L17.2,27.818H4.455A4.455,4.455,0,0,1,0,23.364V14.455A4.455,4.455,0,0,1,4.455,10H28.212a4.455,4.455,0,0,1,4.455,4.455v8.909a4.455,4.455,0,0,1-4.455,4.455H26.727v5.939A1.485,1.485,0,0,1,25.242,35.242ZM4.455,12.97A1.485,1.485,0,0,0,2.97,14.455v8.909a1.485,1.485,0,0,0,1.485,1.485H17.818a1.485,1.485,0,0,1,1.05.435l4.89,4.89v-3.84a1.485,1.485,0,0,1,1.485-1.485h2.97A1.485,1.485,0,0,0,29.7,23.364V14.455a1.485,1.485,0,0,0-1.485-1.485Z" transform="translate(0 4.848)" fill="#272639"/>
  <rect id="Rectangle_17" data-name="Rectangle 17" width="2.956" height="2.956" transform="translate(5.911 22.207)" fill="#e81747"/>
  <rect id="Rectangle_18" data-name="Rectangle 18" width="14.779" height="2.956" transform="translate(11.823 22.207)" fill="#e81747"/>
  <path id="Path_15" data-name="Path 15" d="M26.97,27.818H24V11.485A1.485,1.485,0,0,1,25.485,10H43.3a1.485,1.485,0,0,1,1.485,1.485V24.848h-2.97V12.97H26.97Z" transform="translate(11.636 4.848)" fill="#272639"/>
  <rect id="Rectangle_19" data-name="Rectangle 19" width="17.734" height="2.956" transform="translate(5.911 53.538)" fill="#e81747"/>
  <rect id="Rectangle_20" data-name="Rectangle 20" width="23.646" height="2.956" transform="translate(5.911 47.627)" fill="#272639"/>
  <rect id="Rectangle_21" data-name="Rectangle 21" width="14.779" height="2.956" transform="translate(5.911 41.715)" fill="#272639"/>
  <rect id="Rectangle_22" data-name="Rectangle 22" width="2.956" height="2.956" transform="translate(26.602 53.538)" fill="#272639"/>
</svg>
