<svg xmlns="http://www.w3.org/2000/svg" width="71.869" height="71.863" viewBox="0 0 71.869 71.863">
  <g id="Group_316" data-name="Group 316" transform="translate(-372.064 -1618.205)">
    <path id="Path_21" data-name="Path 21" d="M36.931,23.241l-1.136-2.109A12.58,12.58,0,0,1,48.81,21.8,14.379,14.379,0,0,1,74.234,34.035,9.583,9.583,0,0,1,73.5,53.172H68.7v-2.4H73.5a7.187,7.187,0,1,0,0-14.374h-.9a1.2,1.2,0,0,1-1.116-1.633,11.981,11.981,0,0,0-21.37-10.626,1.2,1.2,0,0,1-1.793.287,10.183,10.183,0,0,0-11.387-1.189ZM30.374,53.172h4.791v-2.4H30.374a7.187,7.187,0,0,1,0-14.374h.4a1.2,1.2,0,0,0,1.155-1.513,10.18,10.18,0,0,1,2.4-9.645L32.582,23.6a12.577,12.577,0,0,0-3.268,10.461,9.583,9.583,0,0,0,1.06,19.107ZM39.957,36.4a1.2,1.2,0,0,0,1.2,1.2H62.715a1.2,1.2,0,0,0,1.2-1.2V30.413a1.2,1.2,0,0,0-1.2-1.2H41.154a1.2,1.2,0,0,0-1.2,1.2v1.2h-2.4v-1.2a3.6,3.6,0,0,1,3.593-3.594H62.715a3.6,3.6,0,0,1,3.593,3.594V55.568a3.6,3.6,0,0,1-3.593,3.593H41.154a3.6,3.6,0,0,1-3.593-3.593V34.007h2.4ZM63.913,55.568v-6.2a3.577,3.577,0,0,1-1.2.206H41.154a3.577,3.577,0,0,1-1.2-.206v6.2a1.2,1.2,0,0,0,1.2,1.2H62.715A1.2,1.2,0,0,0,63.913,55.568ZM39.957,39.79v6.2a1.2,1.2,0,0,0,1.2,1.2H62.715a1.2,1.2,0,0,0,1.2-1.2v-6.2a3.577,3.577,0,0,1-1.2.206H41.154A3.577,3.577,0,0,1,39.957,39.79Zm4.791,2.6h-2.4v2.4h2.4Zm16.77,0H47.144v2.4H61.518ZM42.352,54.37h2.4v-2.4h-2.4Zm4.791,0H61.518v-2.4H47.144ZM32.77,73.535v7.187a2.4,2.4,0,0,1-2.4,2.4H27.117l.6,2.4h1.46v2.4H19.593v-2.4h1.46l.6-2.4H18.4a2.4,2.4,0,0,1-2.4-2.4V73.535a2.4,2.4,0,0,1,2.4-2.4H30.374A2.4,2.4,0,0,1,32.77,73.535Zm-8.122,9.583h-.525l-.6,2.4h1.723Zm5.728-2.4V73.535H18.4v7.187Zm55.1-3.594V73.535H73.5v7.187H85.474v-1.2h2.4v1.2a2.4,2.4,0,0,1-2.4,2.4H82.217l.6,2.4h1.46v2.4H74.694v-2.4h1.46l.6-2.4H73.5a2.4,2.4,0,0,1-2.4-2.4V73.535a2.4,2.4,0,0,1,2.4-2.4H85.474a2.4,2.4,0,0,1,2.4,2.4v3.593Zm-6.252,5.989-.6,2.4h1.723l-.6-2.4Zm-18.9-9.583v7.187a2.4,2.4,0,0,1-2.4,2.4H54.667l.6,2.4h1.46v2.4H47.144v-2.4H48.6l.6-2.4H45.946a2.4,2.4,0,0,1-2.4-2.4V73.535a2.4,2.4,0,0,1,2.4-2.4H57.924a2.4,2.4,0,0,1,2.4,2.4ZM52.2,83.118h-.525l-.6,2.4H52.8Zm5.728-2.4,0-7.187H45.946v7.187ZM80.683,68.744V65.15a1.2,1.2,0,0,0-1.2-1.2H53.133v-2.4h-2.4v2.4H24.385a1.2,1.2,0,0,0-1.2,1.2v3.593h2.4v-2.4H50.737v2.4h2.4v-2.4H78.287v2.4Z" transform="translate(356.064 1602.159)" fill="#272639"/>
    <rect id="Rectangle_253" data-name="Rectangle 253" width="2.956" height="2.956" transform="translate(398.275 1644.207)" fill="#e81747"/>
    <rect id="Rectangle_255" data-name="Rectangle 255" width="2.456" height="2.456" transform="translate(398.275 1654.207)" fill="#e81747"/>
    <rect id="Rectangle_254" data-name="Rectangle 254" width="14.779" height="2.956" transform="translate(403.186 1644.207)" fill="#e81747"/>
  </g>
</svg>
