<svg xmlns="http://www.w3.org/2000/svg" width="72.09" height="72.091" viewBox="0 0 72.09 72.091">
  <g id="noun_Cloud_3384041" transform="translate(-2 -2)">
    <g id="Group_29" data-name="Group 29" transform="translate(2 2)">
      <g id="Group_28" data-name="Group 28">
        <path id="Path_36" data-name="Path 36" d="M8.2,42.851a1.2,1.2,0,0,0,1.2-1.2V29.635a3.6,3.6,0,0,1,3.6-3.6h.631a10.823,10.823,0,0,0,10.183,7.209H24.4a17.916,17.916,0,0,0,6.185,9.593l5.7,4.566a1.2,1.2,0,0,0,1.5,0l5.7-4.566a17.937,17.937,0,0,0,6.763-14.073v-3.93a1.2,1.2,0,0,0-1.2-1.2h-.412a15.107,15.107,0,0,1-10.754-4.454,1.2,1.2,0,0,0-1.7,0,15.2,15.2,0,0,1-3.13,2.384,1.2,1.2,0,0,0,1.2,2.079,18.07,18.07,0,0,0,2.778-1.969,17.469,17.469,0,0,0,10.814,4.347v2.745a15.546,15.546,0,0,1-5.862,12.2l-4.951,3.96-4.951-3.965a15.544,15.544,0,0,1-5.862-12.193V26.011a18.048,18.048,0,0,0,3.244-.469,1.2,1.2,0,0,0-.551-2.338,15.3,15.3,0,0,1-3.484.423h-.41a1.2,1.2,0,0,0-1.2,1.2v3.93a18.315,18.315,0,0,0,.12,2.077h-.12a8.411,8.411,0,0,1-.324-16.8,1.2,1.2,0,0,0,1.087-.8,13.2,13.2,0,0,1,24.97.168,1.2,1.2,0,0,0,1.382.792,8.562,8.562,0,0,1,1.722-.177,8.411,8.411,0,0,1,8.1,10.662c0,.008-.007.014-.01.023v.008a8.37,8.37,0,0,1-7.777,6.128,1.2,1.2,0,0,0-1.157,1.245,1.239,1.239,0,0,0,1.244,1.157A10.767,10.767,0,0,0,62.7,26.45a3.582,3.582,0,0,1,1.969,3.185V58.471a1.2,1.2,0,1,0,2.4,0V29.635a5.99,5.99,0,0,0-3.743-5.544,11.017,11.017,0,0,0,.138-1.665,10.814,10.814,0,0,0-12-10.749,15.6,15.6,0,0,0-28.873.014,10.766,10.766,0,0,0-9.522,11.936h-.071A6.015,6.015,0,0,0,7,29.635V41.65A1.2,1.2,0,0,0,8.2,42.851Z" transform="translate(-0.992 -2)" fill="#272639"/>
        <path id="Path_37" data-name="Path 37" d="M72.889,54.821H46.456a1.2,1.2,0,0,0-1.2,1.2v2.4H30.836v-2.4a1.2,1.2,0,0,0-1.2-1.2H10.411V39.2a1.2,1.2,0,1,0-2.4,0v15.62H3.2a1.2,1.2,0,0,0-1.2,1.2v4.806a6.015,6.015,0,0,0,6.008,6.008h15.62a1.2,1.2,0,0,0,0-2.4H8.008a3.6,3.6,0,0,1-3.6-3.6v-3.6h24.03v2.4a1.2,1.2,0,0,0,1.2,1.2H46.456a1.2,1.2,0,0,0,1.2-1.2v-2.4h24.03v3.6a3.6,3.6,0,0,1-3.6,3.6H28.433a1.2,1.2,0,0,0,0,2.4h39.65a6.015,6.015,0,0,0,6.008-6.008V56.023A1.2,1.2,0,0,0,72.889,54.821Z" transform="translate(-2 5.255)" fill="#272639"/>
        <circle id="Ellipse_4" data-name="Ellipse 4" cx="1" cy="1" r="1" transform="translate(65 65)" fill="#e81747"/>
        <circle id="Ellipse_5" data-name="Ellipse 5" cx="1" cy="1" r="1" transform="translate(60 65)" fill="#e81747"/>
        <circle id="Ellipse_6" data-name="Ellipse 6" cx="1" cy="1" r="1" transform="translate(10 65)" fill="#272639"/>
        <circle id="Ellipse_7" data-name="Ellipse 7" cx="1" cy="1" r="1" transform="translate(5 65)" fill="#272639"/>
        <path id="Path_38" data-name="Path 38" d="M32.806,32.411a1.2,1.2,0,0,0,.849-.352l6.008-6.008a1.2,1.2,0,1,0-1.7-1.7L32.806,29.51l-2.755-2.755a1.2,1.2,0,1,0-1.7,1.7l3.6,3.6A1.2,1.2,0,0,0,32.806,32.411Z" transform="translate(3.239 2.433)" fill="#e81747"/>
        <path id="Path_39" data-name="Path 39" d="M45.008,42.612V35.4h1.2a1.2,1.2,0,0,0,0-2.4h-2.4a1.2,1.2,0,0,0-1.2,1.2v7.209H40.2a1.2,1.2,0,0,0-.912,1.984L46.5,51.8a1.2,1.2,0,0,0,1.824,0l7.209-8.411a1.2,1.2,0,0,0-.912-1.984h-2.4V34.2a1.2,1.2,0,1,0-2.4,0v8.411a1.2,1.2,0,0,0,1.2,1.2h.992l-4.6,5.362-4.6-5.362h.992A1.2,1.2,0,0,0,45.008,42.612Z" transform="translate(5.456 4.247)" fill="#272639"/>
        <path id="Path_40" data-name="Path 40" d="M22.814,42.609v7.209h-1.2a1.2,1.2,0,1,0,0,2.4h2.4a1.2,1.2,0,0,0,1.2-1.2V43.81h2.4a1.2,1.2,0,0,0,.912-1.984l-7.209-8.411a1.241,1.241,0,0,0-1.824,0L12.29,41.827A1.2,1.2,0,0,0,13.2,43.81h2.4v7.209a1.2,1.2,0,0,0,2.4,0V42.609a1.2,1.2,0,0,0-1.2-1.2h-.992l4.6-5.362,4.6,5.362h-.992A1.2,1.2,0,0,0,22.814,42.609Z" transform="translate(0.015 4.25)" fill="#e81747"/>
        <path id="Path_41" data-name="Path 41" d="M29,47.6A3.6,3.6,0,1,0,32.6,44,3.6,3.6,0,0,0,29,47.6Zm4.806,0a1.2,1.2,0,1,1-1.2-1.2A1.2,1.2,0,0,1,33.806,47.6Z" transform="translate(3.441 6.464)" fill="#e81747"/>
      </g>
    </g>
  </g>
</svg>
