<svg xmlns="http://www.w3.org/2000/svg" width="73.193" height="73.193" viewBox="0 0 73.193 73.193">
  <g id="noun_connection_2068745" transform="translate(-2 -2)">
    <path id="Path_24" data-name="Path 24" d="M32.5,58.639h-2.44V45.22A1.22,1.22,0,0,0,28.838,44H6.88a1.22,1.22,0,0,0-1.22,1.22V58.639H3.22A1.22,1.22,0,0,0,2,59.859a6.107,6.107,0,0,0,6.1,6.1H27.618a6.107,6.107,0,0,0,6.1-6.1A1.22,1.22,0,0,0,32.5,58.639ZM8.1,46.44H27.618v12.2H26.4V48.88a1.22,1.22,0,0,0-1.22-1.22H10.539a1.22,1.22,0,0,0-1.22,1.22v9.759H8.1Zm15.859,12.2h-12.2V50.1h12.2Zm3.66,4.88H8.1a3.667,3.667,0,0,1-3.451-2.44h26.42A3.667,3.667,0,0,1,27.618,63.518Z" transform="translate(0 9.235)" fill="#272639"/>
    <path id="Path_25" data-name="Path 25" d="M5.66,3.22V16.639H3.22A1.22,1.22,0,0,0,2,17.859a6.107,6.107,0,0,0,6.1,6.1H27.618a6.107,6.107,0,0,0,6.1-6.1,1.22,1.22,0,0,0-1.22-1.22h-2.44V3.22A1.22,1.22,0,0,0,28.838,2H6.88A1.22,1.22,0,0,0,5.66,3.22Zm21.958,18.3H8.1a3.667,3.667,0,0,1-3.451-2.44h26.42a3.667,3.667,0,0,1-3.451,2.44Zm-3.66-4.88h-12.2V8.1h12.2Zm3.66-12.2v12.2H26.4V6.88a1.22,1.22,0,0,0-1.22-1.22H10.539a1.22,1.22,0,0,0-1.22,1.22v9.759H8.1V4.44Z" transform="translate(0 0)" fill="#e81747"/>
    <path id="Path_26" data-name="Path 26" d="M66.5,58.639h-2.44V45.22A1.22,1.22,0,0,0,62.838,44H40.88a1.22,1.22,0,0,0-1.22,1.22V58.639H37.22A1.22,1.22,0,0,0,36,59.859a6.107,6.107,0,0,0,6.1,6.1H61.618a6.107,6.107,0,0,0,6.1-6.1A1.22,1.22,0,0,0,66.5,58.639ZM42.1,46.44H61.618v12.2H60.4V48.88a1.22,1.22,0,0,0-1.22-1.22H44.539a1.22,1.22,0,0,0-1.22,1.22v9.759H42.1Zm15.859,12.2h-12.2V50.1h12.2Zm3.66,4.88H42.1a3.667,3.667,0,0,1-3.451-2.44h26.42A3.667,3.667,0,0,1,61.618,63.518Z" transform="translate(7.476 9.235)" fill="#e81747"/>
    <path id="Path_27" data-name="Path 27" d="M66.5,16.639h-2.44V3.22A1.22,1.22,0,0,0,62.838,2H40.88a1.22,1.22,0,0,0-1.22,1.22V16.639H37.22A1.22,1.22,0,0,0,36,17.859a6.107,6.107,0,0,0,6.1,6.1H61.618a6.107,6.107,0,0,0,6.1-6.1A1.22,1.22,0,0,0,66.5,16.639ZM42.1,4.44H61.618v12.2H60.4V6.88a1.22,1.22,0,0,0-1.22-1.22H44.539a1.22,1.22,0,0,0-1.22,1.22v9.759H42.1Zm15.859,12.2h-12.2V8.1h12.2Zm3.66,4.88H42.1a3.667,3.667,0,0,1-3.451-2.44h26.42a3.667,3.667,0,0,1-3.451,2.44Z" transform="translate(7.476 0)" fill="#272639"/>
    <rect id="Rectangle_48" data-name="Rectangle 48" width="3" height="3" transform="translate(32 8)" fill="#272639"/>
    <rect id="Rectangle_49" data-name="Rectangle 49" width="3" height="3" transform="translate(37 8)" fill="#272639"/>
    <rect id="Rectangle_50" data-name="Rectangle 50" width="3" height="3" transform="translate(42 8)" fill="#272639"/>
    <rect id="Rectangle_51" data-name="Rectangle 51" width="3" height="3" transform="translate(15 42)" fill="#272639"/>
    <rect id="Rectangle_52" data-name="Rectangle 52" width="3" height="3" transform="translate(15 37)" fill="#272639"/>
    <rect id="Rectangle_53" data-name="Rectangle 53" width="3" height="3" transform="translate(15 32)" fill="#272639"/>
    <rect id="Rectangle_54" data-name="Rectangle 54" width="3" height="2" transform="translate(15 28)" fill="#272639"/>
    <rect id="Rectangle_55" data-name="Rectangle 55" width="3" height="3" transform="translate(15 47)" fill="#e81747"/>
    <rect id="Rectangle_56" data-name="Rectangle 56" width="3" height="3" transform="translate(37 59)" fill="#272639"/>
    <rect id="Rectangle_57" data-name="Rectangle 57" width="3" height="3" transform="translate(42 59)" fill="#272639"/>
    <rect id="Rectangle_58" data-name="Rectangle 58" width="3" height="3" transform="translate(32 59)" fill="#272639"/>
    <rect id="Rectangle_59" data-name="Rectangle 59" width="3" height="3" transform="translate(58 37)" fill="#272639"/>
    <rect id="Rectangle_60" data-name="Rectangle 60" width="3" height="3" transform="translate(58 47)" fill="#272639"/>
    <rect id="Rectangle_61" data-name="Rectangle 61" width="3" height="2" transform="translate(58 28)" fill="#e81747"/>
    <rect id="Rectangle_62" data-name="Rectangle 62" width="3" height="3" transform="translate(58 42)" fill="#272639"/>
    <rect id="Rectangle_63" data-name="Rectangle 63" width="3" height="3" transform="translate(58 32)" fill="#e81747"/>
    <path id="Path_28" data-name="Path 28" d="M18,35.078A17.078,17.078,0,1,0,35.078,18,17.078,17.078,0,0,0,18,35.078ZM35.078,20.44c1.759,0,3.635,2.242,4.837,5.941-1.565.1-3.185.159-4.837.159s-3.272-.057-4.837-.159C31.443,22.682,33.319,20.44,35.078,20.44Zm0,8.539c1.868,0,3.706-.066,5.471-.194a30,30,0,0,1,.6,5.074H29.007a30,30,0,0,1,.6-5.074C31.372,28.913,33.211,28.979,35.078,28.979Zm0,20.738c-1.759,0-3.635-2.242-4.837-5.941,1.565-.1,3.185-.159,4.837-.159s3.272.057,4.837.159C38.714,47.475,36.838,49.717,35.078,49.717Zm0-8.539c-1.868,0-3.706.066-5.471.194a30,30,0,0,1-.6-5.074H41.15a30,30,0,0,1-.6,5.074C38.785,41.244,36.946,41.178,35.078,41.178Zm-8.51-4.88a32.633,32.633,0,0,0,.6,5.3c-1.708.187-3.318.435-4.782.74A14.491,14.491,0,0,1,20.5,36.3Zm17.02,0h6.067a14.491,14.491,0,0,1-1.882,6.04c-1.464-.3-3.072-.554-4.782-.74a32.632,32.632,0,0,0,.6-5.3Zm0-2.44a32.632,32.632,0,0,0-.6-5.3c1.708-.187,3.318-.436,4.782-.74a14.491,14.491,0,0,1,1.882,6.04Zm-17.02,0H20.5a14.491,14.491,0,0,1,1.882-6.04c1.464.3,3.072.554,4.782.74a32.632,32.632,0,0,0-.6,5.3ZM23.914,44.524c1.2-.217,2.493-.4,3.852-.54a17.893,17.893,0,0,0,2.159,4.78,14.675,14.675,0,0,1-6.012-4.239Zm16.317,4.239a17.893,17.893,0,0,0,2.159-4.78c1.359.142,2.65.323,3.852.54A14.675,14.675,0,0,1,40.231,48.763Zm6.012-23.13c-1.2.217-2.493.4-3.852.54a17.893,17.893,0,0,0-2.159-4.78,14.675,14.675,0,0,1,6.012,4.239ZM29.926,21.394a17.893,17.893,0,0,0-2.159,4.78c-1.359-.142-2.65-.323-3.852-.54a14.675,14.675,0,0,1,6.012-4.239Z" transform="translate(3.518 3.518)" fill="#272639"/>
  </g>
</svg>
