<svg xmlns="http://www.w3.org/2000/svg" width="71.639" height="71.863" viewBox="0 0 71.639 71.863">
  <g id="noun_Network_Security_2209186" data-name="noun_Network Security_2209186" transform="translate(-2 -2)">
    <g id="Group_27" data-name="Group 27" transform="translate(2 2)">
      <path id="Path_29" data-name="Path 29" d="M43.1,15.134V2H24V15.134h5.97v2.388H27.582V19.91h11.94V17.522H37.134V15.134ZM26.388,12.746V4.388H40.716v8.358Zm8.358,4.776H32.358V15.134h2.388Z" transform="translate(2.268 -2)" fill="#272639"/>
      <path id="Path_30" data-name="Path 30" d="M34.91,26.587l-1.254,1.252a21.73,21.73,0,0,1-15.462,6.4H17v2.813A37.437,37.437,0,0,0,34.264,68.68l.646.414.646-.414A37.437,37.437,0,0,0,52.819,37.057V34.244H51.625a21.722,21.722,0,0,1-15.462-6.406Zm15.522,10.47A35.052,35.052,0,0,1,34.91,66.243,35.052,35.052,0,0,1,19.388,37.057V36.6A24.065,24.065,0,0,0,34.91,29.952,24.067,24.067,0,0,0,50.431,36.6Z" transform="translate(0.91 2.769)" fill="#272639"/>
      <path id="Path_31" data-name="Path 31" d="M46,15.134h5.97v2.388H49.582V19.91h11.94V17.522H59.134V15.134H65.1V2H46Zm10.746,2.388H54.358V15.134h2.388ZM48.388,4.388H62.716v8.358H48.388Z" transform="translate(6.535 -2)" fill="#e81747"/>
      <path id="Path_32" data-name="Path 32" d="M7.97,17.522H5.582V19.91h11.94V17.522H15.134V15.134H21.1V2H2V15.134H7.97Zm4.776,0H10.358V15.134h2.388ZM4.388,12.746V4.388H18.716v8.358Z" transform="translate(-2 -2)" fill="#272639"/>
      <path id="Path_33" data-name="Path 33" d="M11.388,19H9v4.776H35.268v2.388h2.388V23.776H63.923V19H61.535v2.388H37.655V19H35.268v2.388H11.388Z" transform="translate(-0.642 1.298)" fill="#e81747"/>
      <path id="Path_34" data-name="Path 34" d="M27.388,38.97v2.388H25V54.492H41.716V41.358H39.328V38.97a5.97,5.97,0,1,0-11.94,0ZM39.328,52.1H27.388V43.746h11.94ZM36.94,38.97v2.388H29.776V38.97a3.582,3.582,0,0,1,7.164,0Z" transform="translate(2.461 4.013)" fill="#e81747"/>
      <path id="Path_35" data-name="Path 35" d="M32.194,47.582a1.194,1.194,0,0,0,1.194-1.194V45.194a1.194,1.194,0,0,0-2.388,0v1.194A1.194,1.194,0,0,0,32.194,47.582Z" transform="translate(3.625 6.147)" fill="#272639"/>
    </g>
  </g>
</svg>
