<svg xmlns="http://www.w3.org/2000/svg" width="81.455" height="71.272" viewBox="0 0 81.455 71.272">
  <g id="noun_Planning_3867924" transform="translate(-3.199 -6.8)">
    <path id="Path_3" data-name="Path 3" d="M46.809,38.8V31.164A6.371,6.371,0,0,0,40.445,24.8H30.264A6.371,6.371,0,0,0,23.9,31.164V38.8a6.371,6.371,0,0,0,6.364,6.364H40.445A6.371,6.371,0,0,0,46.809,38.8Zm-17.818,0V31.164a1.274,1.274,0,0,1,1.273-1.273H40.445a1.274,1.274,0,0,1,1.273,1.273V38.8a1.274,1.274,0,0,1-1.273,1.273H30.264A1.274,1.274,0,0,1,28.991,38.8Z" transform="translate(8.573 7.454)" fill="#272639"/>
    <path id="Path_4" data-name="Path 4" d="M56.054,23.9A11.468,11.468,0,0,0,44.6,35.354c.6,15.185,22.31,15.181,22.909,0A11.468,11.468,0,0,0,56.054,23.9Zm0,17.818a6.364,6.364,0,1,1,6.364-6.364,6.363,6.363,0,0,1-6.364,6.364Z" transform="translate(17.145 7.082)" fill="#e81747"/>
    <path id="Path_5" data-name="Path 5" d="M19.745,24.8H9.564A6.371,6.371,0,0,0,3.2,31.164V38.8a6.371,6.371,0,0,0,6.364,6.364H19.745A6.371,6.371,0,0,0,26.109,38.8V31.164A6.371,6.371,0,0,0,19.745,24.8Zm1.273,14a1.274,1.274,0,0,1-1.273,1.273H9.564A1.274,1.274,0,0,1,8.291,38.8V31.164a1.274,1.274,0,0,1,1.273-1.273H19.745a1.274,1.274,0,0,1,1.273,1.273Z" transform="translate(0 7.454)" fill="#272639"/>
    <path id="Path_6" data-name="Path 6" d="M37.5,6.8H15.864A6.371,6.371,0,0,0,9.5,13.164V24.618a2.545,2.545,0,0,0,5.091,0V13.164a1.274,1.274,0,0,1,1.273-1.273H37.5a1.274,1.274,0,0,1,1.273,1.273v6.363l-1.018-.763A2.546,2.546,0,1,0,34.7,22.837l5.091,3.818a2.537,2.537,0,0,0,2.211.4c.541.025,5.439-3.924,5.935-4.222a2.546,2.546,0,0,0-3.055-4.073l-1.018.763V13.164A6.371,6.371,0,0,0,37.5,6.8Z" transform="translate(2.609)" fill="#e81747"/>
    <path id="Path_7" data-name="Path 7" d="M68.637,48.4l-5.091-3.818a2.574,2.574,0,0,0-3-.032c-.054.032-5.144,3.85-5.144,3.85a2.546,2.546,0,1,0,3.055,4.073l1.018-.764V56.8A1.274,1.274,0,0,1,58.2,58.073H36.564A1.274,1.274,0,0,1,35.291,56.8V45.345a2.546,2.546,0,1,0-5.091,0V56.8a6.371,6.371,0,0,0,6.364,6.364H58.2A6.371,6.371,0,0,0,64.564,56.8V51.709l1.018.763A2.546,2.546,0,1,0,68.637,48.4Z" transform="translate(11.182 14.909)" fill="#272639"/>
    <path id="Path_8" data-name="Path 8" d="M12.046,50a2.546,2.546,0,1,0,2.546,2.546A2.545,2.545,0,0,0,12.046,50Z" transform="translate(2.609 17.891)" fill="#e81747"/>
    <path id="Path_9" data-name="Path 9" d="M12.046,42.8a2.546,2.546,0,1,0,2.546,2.546A2.545,2.545,0,0,0,12.046,42.8Z" transform="translate(2.609 14.909)" fill="#272639"/>
  </g>
</svg>
