<svg xmlns="http://www.w3.org/2000/svg" width="60.725" height="71.272" viewBox="0 0 60.725 71.272">
  <g id="noun_UI_UX_2234590" data-name="noun_UI UX_2234590" transform="translate(-7 -2)">
    <g id="Group_12" data-name="Group 12" transform="translate(7 2)">
      <rect id="Rectangle_23" data-name="Rectangle 23" width="2.376" height="2.376" transform="translate(30.885 9.503)" fill="#272639"/>
      <rect id="Rectangle_24" data-name="Rectangle 24" width="2.376" height="2.376" transform="translate(26.133 9.503)" fill="#272639"/>
      <rect id="Rectangle_25" data-name="Rectangle 25" width="2.376" height="2.376" transform="translate(28.509 59.394)" fill="#e81747"/>
      <rect id="Rectangle_26" data-name="Rectangle 26" width="2.376" height="2.376" transform="translate(4.751 23.757)" fill="#272639"/>
      <rect id="Rectangle_27" data-name="Rectangle 27" width="2.376" height="2.376" transform="translate(9.503 23.757)" fill="#272639"/>
      <rect id="Rectangle_28" data-name="Rectangle 28" width="2.376" height="2.376" transform="translate(14.254 23.757)" fill="#272639"/>
      <rect id="Rectangle_29" data-name="Rectangle 29" width="2.376" height="2.376" transform="translate(19.006 23.757)" fill="#272639"/>
      <rect id="Rectangle_30" data-name="Rectangle 30" width="2.376" height="2.376" transform="translate(23.757 23.757)" fill="#272639"/>
      <rect id="Rectangle_31" data-name="Rectangle 31" width="2.376" height="2.376" transform="translate(41.576 45.139)" fill="#272639"/>
      <rect id="Rectangle_32" data-name="Rectangle 32" width="9.503" height="2.376" transform="translate(46.327 45.139)" fill="#272639"/>
      <rect id="Rectangle_33" data-name="Rectangle 33" width="14.254" height="2.376" transform="translate(41.576 49.891)" fill="#272639"/>
      <rect id="Rectangle_34" data-name="Rectangle 34" width="14.254" height="2.376" transform="translate(41.576 54.642)" fill="#e81747"/>
      <path id="Path_16" data-name="Path 16" d="M16.525,7.191v13.1H8.191A1.191,1.191,0,0,0,7,21.479V31a1.191,1.191,0,0,0,1.191,1.191h8.335v34.53a1.191,1.191,0,0,0,1.191,1.191h38.1a1.191,1.191,0,0,0,1.191-1.191V63.152h9.525a1.191,1.191,0,0,0,1.191-1.191V42.911a1.191,1.191,0,0,0-1.191-1.191H57.008V7.191A1.191,1.191,0,0,0,55.818,6h-38.1A1.191,1.191,0,0,0,16.525,7.191ZM9.381,22.669H35.576v7.144H9.381ZM54.627,65.534H18.907V58.39h25v3.572A1.191,1.191,0,0,0,45.1,63.152h9.525Zm10.716-4.763H46.292V44.1H65.343ZM45.1,41.72a1.191,1.191,0,0,0-1.191,1.191v13.1h-25V32.195h17.86A1.191,1.191,0,0,0,37.958,31V21.479a1.191,1.191,0,0,0-1.191-1.191H18.907V17.907h35.72V41.72ZM54.627,8.381v7.144H18.907V8.381Z" transform="translate(-7 -1.237)" fill="#272639"/>
      <path id="Path_17" data-name="Path 17" d="M32.953,31H28.191A1.191,1.191,0,0,0,27,32.191v4.763a1.191,1.191,0,0,0,1.191,1.191h4.763a1.191,1.191,0,0,0,1.191-1.191V32.191A1.191,1.191,0,0,0,32.953,31Zm-1.191,4.763H29.381V33.381h2.381Z" transform="translate(-3.186 3.53)" fill="#272639"/>
      <path id="Path_18" data-name="Path 18" d="M20.191,38.144h4.763a1.191,1.191,0,0,0,1.191-1.191V32.191A1.191,1.191,0,0,0,24.953,31H20.191A1.191,1.191,0,0,0,19,32.191v4.763A1.191,1.191,0,0,0,20.191,38.144Zm1.191-4.763h2.381v2.381H21.381Z" transform="translate(-4.712 3.53)" fill="#e81747"/>
      <path id="Path_19" data-name="Path 19" d="M44.279,26.164a4.763,4.763,0,1,0-6.651,0A5.953,5.953,0,0,0,35,31.1v4.763a1.191,1.191,0,0,0,1.191,1.191h9.525a1.191,1.191,0,0,0,1.191-1.191V31.1a5.953,5.953,0,0,0-2.628-4.935Zm-5.707-3.4a2.381,2.381,0,1,1,2.381,2.381A2.381,2.381,0,0,1,38.572,22.764Zm5.953,11.907H37.381V31.1a3.572,3.572,0,1,1,7.144,0Z" transform="translate(-1.661 1.049)" fill="#e81747"/>
      <rect id="Rectangle_35" data-name="Rectangle 35" width="2.376" height="2.376" transform="translate(14.254 43.951)" fill="#272639"/>
      <rect id="Rectangle_36" data-name="Rectangle 36" width="11.879" height="2.376" transform="translate(19.006 43.951)" fill="#272639"/>
      <rect id="Rectangle_37" data-name="Rectangle 37" width="16.63" height="2.376" transform="translate(14.254 48.703)" fill="#272639"/>
      <rect id="Rectangle_38" data-name="Rectangle 38" width="23.757" height="2.376" transform="translate(22.57 68.897)" fill="#272639"/>
      <rect id="Rectangle_39" data-name="Rectangle 39" width="2.376" height="19.006" transform="translate(4.751 34.448)" fill="#272639"/>
      <path id="Path_20" data-name="Path 20" d="M56.241,6.763A4.763,4.763,0,0,0,51.479,2H36V4.381H51.479A2.381,2.381,0,0,1,53.86,6.763V25.814h2.381Z" transform="translate(-1.47 -2)" fill="#e81747"/>
      <rect id="Rectangle_40" data-name="Rectangle 40" width="2.376" height="2.376" transform="translate(52.266 26.133)" fill="#272639"/>
    </g>
  </g>
</svg>
