<svg xmlns="http://www.w3.org/2000/svg" width="12.227" height="13.586" viewBox="0 0 12.227 13.586">
  <path id="Icon_material-date-range" data-name="Icon material-date-range" d="M8.576,9.114H7.217v1.359H8.576Zm2.717,0H9.934v1.359h1.359Zm2.717,0H12.652v1.359H14.01Zm1.359-4.755h-.679V3H13.331V4.359H7.9V3H6.538V4.359H5.859A1.352,1.352,0,0,0,4.507,5.717L4.5,15.227a1.358,1.358,0,0,0,1.359,1.359h9.51a1.363,1.363,0,0,0,1.359-1.359V5.717A1.363,1.363,0,0,0,15.369,4.359Zm0,10.869H5.859V7.755h9.51Z" transform="translate(-4.5 -3)" fill="#7d7d88"/>
</svg>
