<svg xmlns="http://www.w3.org/2000/svg" width="16.406" height="15.93" viewBox="0 0 16.406 15.93">
  <path id="Icon_ionic-ios-heart-empty" data-name="Icon ionic-ios-heart-empty" d="M14.633,3.938H14.6a4.214,4.214,0,0,0-3.518,1.926A4.214,4.214,0,0,0,7.56,3.938H7.523A4.187,4.187,0,0,0,3.375,8.122a9.015,9.015,0,0,0,1.77,4.914,31.022,31.022,0,0,0,5.933,5.714,31.022,31.022,0,0,0,5.933-5.714,9.015,9.015,0,0,0,1.77-4.914A4.187,4.187,0,0,0,14.633,3.938Zm1.541,8.488a28.4,28.4,0,0,1-5.1,5.022,28.447,28.447,0,0,1-5.1-5.026,7.989,7.989,0,0,1-1.57-4.3A3.142,3.142,0,0,1,7.53,4.978h.033a3.1,3.1,0,0,1,1.522.4,3.236,3.236,0,0,1,1.126,1.055,1.04,1.04,0,0,0,1.741,0,3.268,3.268,0,0,1,1.126-1.055,3.1,3.1,0,0,1,1.522-.4h.033a3.142,3.142,0,0,1,3.118,3.144A8.091,8.091,0,0,1,16.174,12.426Z" transform="translate(-2.875 -3.438)" fill="#9a99a1" stroke="#9a99a1" stroke-width="1"/>
</svg>
