<svg id="Component_15_6" data-name="Component 15 – 6" xmlns="http://www.w3.org/2000/svg" width="33" height="33" viewBox="0 0 33 33">
  <circle id="Ellipse_21" data-name="Ellipse 21" cx="16.5" cy="16.5" r="16.5" fill="#78b4d1"/>
  <path id="Icon_awesome-linkedin-in" data-name="Icon awesome-linkedin-in" d="M2.834,12.66H.209V4.208H2.834ZM1.52,3.055A1.527,1.527,0,1,1,3.04,1.521,1.533,1.533,0,0,1,1.52,3.055Zm11.136,9.6H10.037V8.545c0-.981-.02-2.238-1.365-2.238C7.308,6.307,7.1,7.373,7.1,8.475V12.66H4.478V4.208H6.995V5.361h.037A2.758,2.758,0,0,1,9.515,4c2.656,0,3.144,1.749,3.144,4.021V12.66Z" transform="translate(10 9.999)" fill="#fff"/>
</svg>
