<svg id="Component_14_3" data-name="Component 14 – 3" xmlns="http://www.w3.org/2000/svg" width="33" height="33" viewBox="0 0 33 33">
  <circle id="Ellipse_20" data-name="Ellipse 20" cx="16.5" cy="16.5" r="16.5" fill="#65c3ff"/>
  <path id="Icon_awesome-twitter" data-name="Icon awesome-twitter" d="M14.469,6.645c.01.143.01.287.01.43a9.34,9.34,0,0,1-9.4,9.4A9.34,9.34,0,0,1,0,15a6.837,6.837,0,0,0,.8.041,6.619,6.619,0,0,0,4.1-1.412,3.311,3.311,0,0,1-3.09-2.292,4.168,4.168,0,0,0,.624.051,3.5,3.5,0,0,0,.87-.113A3.306,3.306,0,0,1,.655,8.026V7.986a3.329,3.329,0,0,0,1.494.42A3.31,3.31,0,0,1,1.126,3.984,9.4,9.4,0,0,0,7.941,7.443a3.731,3.731,0,0,1-.082-.757,3.308,3.308,0,0,1,5.72-2.261,6.507,6.507,0,0,0,2.1-.8,3.3,3.3,0,0,1-1.453,1.821,6.626,6.626,0,0,0,1.9-.512,7.1,7.1,0,0,1-1.658,1.709Z" transform="translate(8 6.619)" fill="#fff"/>
</svg>
