<svg xmlns="http://www.w3.org/2000/svg" width="12.597" height="8.721" viewBox="0 0 12.597 8.721">
  <g id="Icon_ionic-ios-mail" data-name="Icon ionic-ios-mail" transform="translate(-3.375 -7.875)">
    <path id="Path_42" data-name="Path 42" d="M15.869,10.332l-3.258,3.319a.059.059,0,0,0,0,.085l2.28,2.428a.393.393,0,0,1,0,.557.395.395,0,0,1-.557,0L12.062,14.3a.062.062,0,0,0-.088,0l-.554.563a2.438,2.438,0,0,1-1.738.733,2.487,2.487,0,0,1-1.774-.754L7.375,14.3a.062.062,0,0,0-.088,0L5.016,16.722a.395.395,0,0,1-.557,0,.393.393,0,0,1,0-.557l2.28-2.428a.064.064,0,0,0,0-.085L3.478,10.332a.06.06,0,0,0-.1.042v6.641a.972.972,0,0,0,.969.969H15a.972.972,0,0,0,.969-.969V10.375A.061.061,0,0,0,15.869,10.332Z" transform="translate(0 -1.389)" fill="#272639"/>
    <path id="Path_43" data-name="Path 43" d="M10.158,13.419a1.646,1.646,0,0,0,1.184-.5l4.751-4.836a.952.952,0,0,0-.6-.212H4.825a.945.945,0,0,0-.6.212l4.751,4.836A1.646,1.646,0,0,0,10.158,13.419Z" transform="translate(-0.484)" fill="#272639"/>
  </g>
</svg>
