<svg xmlns="http://www.w3.org/2000/svg" xmlns:xlink="http://www.w3.org/1999/xlink" width="91.673" height="97" viewBox="0 0 91.673 97">
  <defs>
    <linearGradient id="linear-gradient" y1="0.57" x2="1" y2="0.559" gradientUnits="objectBoundingBox">
      <stop offset="0" stop-color="#272639"/>
      <stop offset="1" stop-color="#e81747"/>
    </linearGradient>
  </defs>
  <path id="Path_216" data-name="Path 216" d="M12.5,13.3A11.8,11.8,0,1,0,24.29,1.5,11.8,11.8,0,0,0,12.5,13.3Zm18.6,0a6.8,6.8,0,1,1-6.8-6.8,6.8,6.8,0,0,1,6.8,6.8ZM4.23,39.64,6.64,57.78A9.5,9.5,0,0,0,11.42,65L15.3,93.42A5.73,5.73,0,0,0,21,98.5h6.6a5.71,5.71,0,0,0,5.68-5L37.17,65a9.46,9.46,0,0,0,4.78-7.19l2.42-18.23a10.81,10.81,0,0,0-10.74-12H30.57a2.88,2.88,0,0,0-2.27,1.09l-4,5-4-5A2.89,2.89,0,0,0,18,27.56H15A10.81,10.81,0,0,0,4.23,39.64Zm6.4-5.14A5.74,5.74,0,0,1,15,32.56h2l4.46,5.57a2.5,2.5,0,0,0,2,.94h1.73a2.5,2.5,0,0,0,2-.94l4.46-5.57h2A5.81,5.81,0,0,1,39.41,39L37,57.21A4.54,4.54,0,0,1,34,61a2.5,2.5,0,0,0-1.61,2L28.32,92.85a.73.73,0,0,1-.72.65H21a.74.74,0,0,1-.73-.7L16.19,63a2.5,2.5,0,0,0-1.61-2,4.56,4.56,0,0,1-3-3.82L9.19,39a5.74,5.74,0,0,1,1.44-4.5ZM41.44,84.63a2.5,2.5,0,0,1,3.47-.7,29.57,29.57,0,1,0,8-53,2.5,2.5,0,0,1-1.41-4.8,34.58,34.58,0,1,1-9.36,62,2.5,2.5,0,0,1-.7-3.5ZM63.77,42v2a9.88,9.88,0,0,1,6.65,5.74,2.5,2.5,0,1,1-4.61,1.93,4.91,4.91,0,0,0-4.54-3c-2.37,0-4.91,1.34-4.91,4.3,0,.77,0,3.11,5.47,4.36h.08C70,59.28,71.18,64,71.18,66.62a9.17,9.17,0,0,1-7.41,9v2a2.5,2.5,0,1,1-5,0v-2a9.87,9.87,0,0,1-6.65-5.74,2.5,2.5,0,1,1,4.61-1.93,4.91,4.91,0,0,0,4.54,3c2.37,0,4.91-1.34,4.91-4.3,0-.77,0-3.11-5.47-4.36h-.08c-8.06-1.87-9.27-6.57-9.27-9.21a9.17,9.17,0,0,1,7.41-9V42a2.5,2.5,0,0,1,5,0Z" transform="translate(-4.155 -1.5)" fill="url(#linear-gradient)"/>
</svg>
