<svg xmlns="http://www.w3.org/2000/svg" xmlns:xlink="http://www.w3.org/1999/xlink" width="118.354" height="81.645" viewBox="0 0 118.354 81.645">
  <defs>
    <linearGradient id="linear-gradient" y1="0.57" x2="1" y2="0.559" gradientUnits="objectBoundingBox">
      <stop offset="0" stop-color="#272639"/>
      <stop offset="1" stop-color="#e81747"/>
    </linearGradient>
  </defs>
  <g id="Group_319" data-name="Group 319" transform="translate(-12.55 -22.12)">
    <path id="Path_190" data-name="Path 190" d="M120,22.12H28.184a6.634,6.634,0,0,0-6.634,6.634V83.862A6.634,6.634,0,0,0,28.184,90.5H120a6.634,6.634,0,0,0,6.634-6.634V28.754A6.634,6.634,0,0,0,120,22.12ZM46.775,86.074H36.234a6.516,6.516,0,1,1,10.556,0Zm75.438-2.211A2.211,2.211,0,0,1,120,86.074H51.7a10.733,10.733,0,0,0,.487-5.779H114.1a2.211,2.211,0,0,0,0-4.423H51.33a2.2,2.2,0,0,0-.87.177A10.924,10.924,0,0,0,31.295,86.074H28.184a2.211,2.211,0,0,1-2.211-2.211V28.754a2.211,2.211,0,0,1,2.211-2.211H120a2.211,2.211,0,0,1,2.211,2.211Z" transform="translate(4.269)" fill="url(#linear-gradient)"/>
    <path id="Path_195" data-name="Path 195" d="M115.424,90.651a2.211,2.211,0,0,0-2.211,2.211A2.211,2.211,0,0,1,111,95.074H19.184a2.211,2.211,0,0,1-2.211-2.211V37.754a2.211,2.211,0,0,1,2.211-2.211,2.211,2.211,0,1,0,0-4.423,6.634,6.634,0,0,0-6.634,6.634V92.862A6.634,6.634,0,0,0,19.184,99.5H111a6.634,6.634,0,0,0,6.634-6.634A2.211,2.211,0,0,0,115.424,90.651Z" transform="translate(0 4.269)" fill="url(#linear-gradient)"/>
  </g>
</svg>
