<svg xmlns="http://www.w3.org/2000/svg" width="24.857" height="29" viewBox="0 0 24.857 29">
  <path id="Icon_metro-file-pdf" data-name="Icon metro-file-pdf" d="M26.327,8.353a3.766,3.766,0,0,1,.777,1.23,3.735,3.735,0,0,1,.324,1.424V29.65A1.547,1.547,0,0,1,25.874,31.2H4.124A1.547,1.547,0,0,1,2.571,29.65V3.757A1.547,1.547,0,0,1,4.124,2.2h14.5a3.736,3.736,0,0,1,1.424.324,3.766,3.766,0,0,1,1.23.777ZM19.142,4.4v6.085h6.085a1.768,1.768,0,0,0-.356-.664L19.806,4.76a1.768,1.768,0,0,0-.664-.356Zm6.214,24.728V12.561H18.624a1.547,1.547,0,0,1-1.554-1.554V4.275H4.642V29.132H25.357Zm-8.318-9.6a12.313,12.313,0,0,0,1.359.906,16.059,16.059,0,0,1,1.893-.113q2.379,0,2.864.793a.782.782,0,0,1,.032.842.047.047,0,0,1-.016.032l-.032.032v.016q-.1.615-1.149.615a6.676,6.676,0,0,1-1.861-.324,11.8,11.8,0,0,1-2.1-.858,29.14,29.14,0,0,0-6.344,1.343q-2.476,4.24-3.916,4.24a.941.941,0,0,1-.453-.113l-.388-.194q-.016-.016-.1-.081a.669.669,0,0,1-.1-.583,3.514,3.514,0,0,1,.906-1.481,7.821,7.821,0,0,1,2.136-1.562.236.236,0,0,1,.372.1.093.093,0,0,1,.032.065q.842-1.376,1.732-3.188a24.7,24.7,0,0,0,1.683-4.24A13.082,13.082,0,0,1,13.1,13.2a6.292,6.292,0,0,1,.105-2.063q.178-.647.68-.647h.356a.682.682,0,0,1,.566.243,1.293,1.293,0,0,1,.146,1.1.351.351,0,0,1-.065.129.421.421,0,0,1,.016.129v.485a21.192,21.192,0,0,1-.227,3.107,8.187,8.187,0,0,0,2.363,3.852ZM7.717,26.187A7.146,7.146,0,0,0,9.934,23.63a9.225,9.225,0,0,0-1.416,1.359A5.379,5.379,0,0,0,7.717,26.187ZM14.158,11.3a4.812,4.812,0,0,0-.032,2.136q.016-.113.113-.712,0-.049.113-.7a.364.364,0,0,1,.065-.129.047.047,0,0,1-.016-.032.033.033,0,0,0-.008-.024.033.033,0,0,1-.008-.024.931.931,0,0,0-.21-.583.047.047,0,0,1-.016.032V11.3ZM12.151,22a23.737,23.737,0,0,1,4.6-1.311,2.441,2.441,0,0,1-.21-.154,2.9,2.9,0,0,1-.259-.218,8.572,8.572,0,0,1-2.055-2.848,21.626,21.626,0,0,1-1.343,3.188q-.485.906-.728,1.343Zm10.454-.259a3.873,3.873,0,0,0-2.266-.388,6.121,6.121,0,0,0,2.007.453,1.57,1.57,0,0,0,.291-.016q0-.016-.032-.049Z" transform="translate(-2.571 -2.203)" fill="#272639" opacity="0.6"/>
</svg>
