<svg xmlns="http://www.w3.org/2000/svg" width="62" height="50.001" viewBox="0 0 62 50.001">
  <g id="noun_confidential_3049471" transform="translate(-1 -0.999)">
    <g id="Group_241" data-name="Group 241">
      <path id="Path_235" data-name="Path 235" d="M13,13A4,4,0,1,0,9,9,4,4,0,0,0,13,13Zm0-6a2,2,0,1,1-2,2A2,2,0,0,1,13,7Z" fill="#272639"/>
      <rect id="Rectangle_331" data-name="Rectangle 331" width="2" height="2" transform="translate(26 45)" fill="#272639"/>
      <rect id="Rectangle_332" data-name="Rectangle 332" width="2" height="2" transform="translate(22 45)" fill="#272639"/>
      <rect id="Rectangle_333" data-name="Rectangle 333" width="2" height="2" transform="translate(30 45)" fill="#272639"/>
      <path id="Path_236" data-name="Path 236" d="M58,5H43.5L42,3a5.025,5.025,0,0,0-4-2H30a5.006,5.006,0,0,0-5,5v9H22.144A9.982,9.982,0,0,0,12.708,1a10.129,10.129,0,0,0-9.7,9.678h0a9.984,9.984,0,0,0,1.03,4.741A4.984,4.984,0,0,0,1,20V46a5.006,5.006,0,0,0,5,5H48a5.006,5.006,0,0,0,5-5V31h5a5.006,5.006,0,0,0,5-5V10A5.006,5.006,0,0,0,58,5ZM30,3h8a3.017,3.017,0,0,1,2.4,1.2L42.5,7H58a3,3,0,0,1,2.816,2H27V6A3,3,0,0,1,30,3ZM5.005,10.744A8.1,8.1,0,0,1,12.765,3Q12.883,3,13,3a7.995,7.995,0,0,1,2.664,15.534L15,18.771V21H13v6h2v2H13v6h2v1a1,1,0,0,1-1,1H12a1,1,0,0,1-1-1V18.771l-.666-.236a7.976,7.976,0,0,1-5.329-7.791ZM24,51h0Zm24-2H6a3,3,0,0,1-3-3V43H51v3A3,3,0,0,1,48,49Zm3-8H3V20a3,3,0,0,1,2.108-2.865A9.97,9.97,0,0,0,9,20.157V36a3,3,0,0,0,3,3h2a3,3,0,0,0,3-3V33H15V31h2V25H15V23h2V20.157A9.982,9.982,0,0,0,20.958,17H25v9a5.006,5.006,0,0,0,5,5H51Zm7-12H30a3,3,0,0,1-3-3V11H61V26A3,3,0,0,1,58,29Z" fill="#272639"/>
      <rect id="Rectangle_334" data-name="Rectangle 334" width="2" height="2" transform="translate(29 5)" fill="#272639"/>
      <rect id="Rectangle_335" data-name="Rectangle 335" width="2" height="2" transform="translate(37 5)" fill="#272639"/>
      <rect id="Rectangle_336" data-name="Rectangle 336" width="2" height="2" transform="translate(33 5)" fill="#272639"/>
      <rect id="Rectangle_337" data-name="Rectangle 337" width="18" height="2" transform="translate(31 33)" fill="#272639"/>
      <rect id="Rectangle_338" data-name="Rectangle 338" width="10" height="2" transform="translate(31 37)" fill="#272639"/>
      <rect id="Rectangle_339" data-name="Rectangle 339" width="2" height="2" transform="translate(43 37)" fill="#272639"/>
      <rect id="Rectangle_340" data-name="Rectangle 340" width="2" height="2" transform="translate(47 37)" fill="#272639"/>
      <path id="Path_237" data-name="Path 237" d="M57,21H51a2,2,0,0,0-2,2v2a2,2,0,0,0,2,2h6a2,2,0,0,0,2-2V23A2,2,0,0,0,57,21Zm-6,4V23h6v2Z" fill="#272639"/>
      <rect id="Rectangle_341" data-name="Rectangle 341" width="2" height="2" transform="translate(29 17)" fill="#272639"/>
      <rect id="Rectangle_342" data-name="Rectangle 342" width="2" height="2" transform="translate(29 21)" fill="#272639"/>
      <rect id="Rectangle_343" data-name="Rectangle 343" width="2" height="2" transform="translate(29 25)" fill="#272639"/>
    </g>
  </g>
</svg>
