<svg xmlns="http://www.w3.org/2000/svg" width="50.5" height="50.5" viewBox="0 0 50.5 50.5">
  <g id="noun_Laptop_Lock_4227266" data-name="noun_Laptop Lock_4227266" transform="translate(-4 -4)">
    <g id="_15_Laptop_Lock_Laptop_Password_Laptop_Protection_Online_Security_Protected_System" data-name="15 Laptop Lock, Laptop Password, Laptop Protection, Online Security, Protected System" transform="translate(4 4)">
      <path id="Path_238" data-name="Path 238" d="M45.482,16.625h-1.8v-1.8h1.8a4.509,4.509,0,0,1,4.509,4.509v2.651h-1.8V19.33a2.705,2.705,0,0,0-2.705-2.705ZM52.7,48.187v2.705A3.607,3.607,0,0,1,49.089,54.5H7.607A3.607,3.607,0,0,1,4,50.892V48.187a.9.9,0,0,1,.9-.9h1.8V19.33a4.509,4.509,0,0,1,4.509-4.509h1.8v1.8h-1.8A2.705,2.705,0,0,0,8.509,19.33V47.285h1.8V19.33a.9.9,0,0,1,.9-.9h1.7v1.8h-.8V47.285H44.58V45.428h1.8v1.858h1.8V45.428h1.8v1.858h1.8A.9.9,0,0,1,52.7,48.187Zm-1.8.9H5.8v1.8a1.8,1.8,0,0,0,1.8,1.8H49.089a1.8,1.8,0,0,0,1.8-1.8ZM23.839,51.794h9.018v-1.8H23.839ZM44.58,21.981h1.8V19.33a.9.9,0,0,0-.9-.9h-1.9v1.8h1ZM54.5,32.857v9.018a2.705,2.705,0,0,1-2.705,2.705H42.776a2.705,2.705,0,0,1-2.705-2.705V32.857a2.705,2.705,0,0,1,1.8-2.543V28.348a5.411,5.411,0,0,1,10.821,0v1.966a2.705,2.705,0,0,1,1.8,2.543ZM43.678,30.152h7.214v-1.8a3.607,3.607,0,0,0-7.214,0ZM52.7,32.857a.9.9,0,0,0-.9-.9H42.776a.9.9,0,0,0-.9.9v9.018a.9.9,0,0,0,.9.9h9.018a.9.9,0,0,0,.9-.9Zm-2.705,3.607a2.705,2.705,0,0,1-1.8,2.543v1.966h-1.8V39.007a2.705,2.705,0,1,1,3.607-2.543Zm-1.8,0a.9.9,0,1,0-.9.9A.9.9,0,0,0,48.187,36.464ZM13.92,43.678V4.9a.9.9,0,0,1,.9-.9H41.875a.9.9,0,0,1,.9.9V23.839h-1.8V11.214H15.723V42.776H39.169v1.8H14.821A.9.9,0,0,1,13.92,43.678ZM15.723,5.8V9.411h25.25V5.8Zm3.607.9h-1.8v1.8h1.8Zm3.607,0h-1.8v1.8h1.8Zm3.607,0h-1.8v1.8h1.8Zm-8.116,15.33a.9.9,0,0,1-.9-.9V13.92a.9.9,0,0,1,.9-.9h9.018a.9.9,0,0,1,.9.9v7.214a.9.9,0,0,1-.9.9Zm.9-1.8h7.214V14.821H19.33Zm19.839-7.214H30.152v1.8h9.018Zm0,3.607H30.152v1.8h9.018Zm0,3.607H30.152v1.8h9.018ZM17.527,25.643h3.607v-1.8H17.527Zm21.643-1.8H22.937v1.8H39.169ZM17.527,29.25h3.607v-1.8H17.527Zm21.643-1.8H22.937v1.8H39.169ZM28.348,31.053H17.527v1.8H28.348Zm0,3.607H17.527v1.8H28.348ZM17.527,40.071H28.348v-1.8H17.527Zm20.741-9.018a.9.9,0,0,1,.9.9v7.214a.9.9,0,0,1-.9.9H31.053a.9.9,0,0,1-.9-.9V31.955a.9.9,0,0,1,.9-.9Zm-.9,1.8H31.955v5.411h5.411Z" transform="translate(-4 -4)" fill="#272639"/>
    </g>
  </g>
</svg>
