<svg xmlns="http://www.w3.org/2000/svg" width="50.005" height="50.001" viewBox="0 0 50.005 50.001">
  <g id="noun_decrease_3692318" transform="translate(-1.999 -2)">
    <path id="Path_239" data-name="Path 239" d="M27.381,42.621a15.819,15.819,0,0,0,6.268-30.359.711.711,0,0,0,.019-.1V10.5H37.6l3.969,2.381A.824.824,0,0,0,42,13h5.153a2.5,2.5,0,1,0,0-1.667H42.232L38.263,8.953a.824.824,0,0,0-.428-.119h-5A.833.833,0,0,0,32,9.667v2a15.908,15.908,0,0,0-1.667-.414V6.333A.833.833,0,0,0,29.5,5.5H21.014a2.485,2.485,0,0,0-4.693,0H12.345L10.089,3.244A.83.83,0,0,0,9.5,3H2.833a.833.833,0,0,0,0,1.667H9.155l2.256,2.256A.83.83,0,0,0,12,7.167h4.32a2.485,2.485,0,0,0,4.693,0h7.654v3.851a15.8,15.8,0,0,0-5.206.426.834.834,0,0,0,.412,1.616A14.169,14.169,0,0,1,37.4,36.806,14.167,14.167,0,1,1,19.939,14.729a.834.834,0,0,0-.878-1.418,15.834,15.834,0,0,0-5.418,21.321L10.881,37.4h0a2.5,2.5,0,0,0-3.536,3.536h0L3.221,45.057a4.166,4.166,0,0,0,5.892,5.891l4.125-4.125h0a2.5,2.5,0,1,0,3.535-3.536l2.758-2.758A15.729,15.729,0,0,0,27.381,42.621ZM49.5,11.334a.833.833,0,1,1-.833.833A.834.834,0,0,1,49.5,11.334ZM18.667,7.167a.833.833,0,1,1,.833-.833A.834.834,0,0,1,18.667,7.167ZM7.934,49.769a2.56,2.56,0,0,1-3.535,0,2.5,2.5,0,0,1,0-3.536l4.124-4.125,3.536,3.536Zm7.66-4.125a.854.854,0,0,1-1.178,0l-.589-.589h0l-5.3-5.3A.834.834,0,1,1,9.7,38.573l.588.588h0l4.713,4.713h0l.589.589A.834.834,0,0,1,15.594,45.644Zm0-3.536L12.06,38.573l2.51-2.511a15.82,15.82,0,0,0,1.614,1.921A16.009,16.009,0,0,0,18.1,39.6Z" transform="translate(0 -0.167)"/>
    <path id="Path_240" data-name="Path 240" d="M20.578,22.058a.831.831,0,0,0-1.152.252A12.569,12.569,0,0,0,21.12,37.885a12.5,12.5,0,1,0,1.288-18.8.833.833,0,0,0,1.008,1.327A10.827,10.827,0,0,1,40.388,31.941a.813.813,0,0,0-.22-.465l-7.985-7.985a2.506,2.506,0,0,0-3.3-.206l-6.256,4.866-1.839-.92a.834.834,0,0,0-.746,1.491l2.309,1.155a.838.838,0,0,0,.885-.088L29.9,24.6a.836.836,0,0,1,1.1.068l7.985,7.985a.828.828,0,0,0,1.167.007A10.82,10.82,0,0,1,22.3,36.705a10.893,10.893,0,0,1-1.469-13.5A.831.831,0,0,0,20.578,22.058Z" transform="translate(-2.579 -2.426)"/>
    <path id="Path_241" data-name="Path 241" d="M22.218,35.347a2.512,2.512,0,0,0,2.653-.263l5.758-4.478,6.428,6.428a.834.834,0,0,0,1.178-1.179l-6.949-6.948a.834.834,0,0,0-1.1-.069l-6.338,4.931a.839.839,0,0,1-.885.088l-1.757-.879a.834.834,0,1,0-.746,1.491Z" transform="translate(-3 -4.443)"/>
    <path id="Path_242" data-name="Path 242" d="M58.043,38.579a1.662,1.662,0,0,0-1.823.38l-3.814,3.908L50.359,40.82A.833.833,0,0,0,49.181,42l2.643,2.643a.833.833,0,0,0,.589.244h.005a.829.829,0,0,0,.592-.252l4.4-4.512V51.409H46.127l4.512-4.4a.833.833,0,0,0,.007-1.186L48,43.173a.833.833,0,0,0-1.178,1.178l2.05,2.05-3.908,3.815a1.667,1.667,0,0,0,1.163,2.859h12.12a.833.833,0,0,0,.833-.833V40.123A1.66,1.66,0,0,0,58.043,38.579Z" transform="translate(-7.076 -6.075)"/>
    <path id="Path_243" data-name="Path 243" d="M2.469,21.968l7.9,3.845a.819.819,0,0,0,.363.084.833.833,0,0,0,.365-1.583L3.2,20.47a.833.833,0,1,0-.728,1.5Z" transform="translate(0 -3.064)"/>
    <path id="Path_244" data-name="Path 244" d="M2.468,26.424l7.5,3.66a.834.834,0,0,0,.731-1.5l-7.5-3.66a.834.834,0,0,0-.731,1.5Z" transform="translate(0 -3.806)"/>
    <path id="Path_245" data-name="Path 245" d="M49.167,2.833A2.5,2.5,0,0,0,46.82,4.5H42.731L38.762,2.119A.824.824,0,0,0,38.334,2h-7.5a.833.833,0,1,0,0,1.667H38.1l3.969,2.381a.824.824,0,0,0,.428.119h4.32a2.5,2.5,0,1,0,2.347-3.333Zm0,3.333A.833.833,0,1,1,50,5.333.834.834,0,0,1,49.167,6.167Z" transform="translate(-4.666)"/>
  </g>
</svg>
