<svg xmlns="http://www.w3.org/2000/svg" width="46.408" height="49.502" viewBox="0 0 46.408 49.502">
  <g id="noun_evaluation_2952287" transform="translate(-4)">
    <g id="_04-Evaluation" data-name="04-Evaluation" transform="translate(4)">
      <path id="Path_246" data-name="Path 246" d="M14.055,60.828a.773.773,0,0,1-.547-.227L4.227,51.32A.773.773,0,0,1,4.774,50h9.282a.773.773,0,0,1,.773.773v9.282A.773.773,0,0,1,14.055,60.828ZM6.641,51.547l6.641,6.641V51.547Z" transform="translate(-4 -11.327)"/>
      <path id="Path_247" data-name="Path 247" d="M42.673,49.5H14.055a.773.773,0,0,1-.547-.227L4.227,39.994A.773.773,0,0,1,4,39.447V.773A.773.773,0,0,1,4.773,0H43.447a.773.773,0,0,1,.773.773V35.579H42.673V1.547H5.547v37.58l8.828,8.828h28.3Z" transform="translate(-4 0)"/>
      <path id="Path_248" data-name="Path 248" d="M55.282,59.922a.773.773,0,0,1-.547-.227l-8.508-8.508a.773.773,0,0,1,0-1.094l3.867-3.867a.773.773,0,0,1,1.094,0L59.7,54.735a.773.773,0,0,1,0,1.094L55.828,59.7A.773.773,0,0,1,55.282,59.922Zm-7.414-9.282,7.414,7.414,2.774-2.774-7.414-7.414Z" transform="translate(-13.515 -10.421)"/>
      <rect id="Rectangle_345" data-name="Rectangle 345" width="1.547" height="6.563" transform="translate(29.618 35.353) rotate(-45)"/>
      <rect id="Rectangle_346" data-name="Rectangle 346" width="1.547" height="6.563" transform="translate(31.165 33.806) rotate(-45)"/>
      <rect id="Rectangle_347" data-name="Rectangle 347" width="5.469" height="1.547" transform="translate(35.033 41.994) rotate(-45)"/>
      <path id="Path_249" data-name="Path 249" d="M25.243,41.485A16.243,16.243,0,1,1,41.485,25.243,16.243,16.243,0,0,1,25.243,41.485Zm0-30.939a14.7,14.7,0,1,0,14.7,14.7,14.7,14.7,0,0,0-14.7-14.7Z" transform="translate(-5.133 -2.039)"/>
      <path id="Path_250" data-name="Path 250" d="M26.375,38.751A12.375,12.375,0,1,1,38.751,26.375,12.375,12.375,0,0,1,26.375,38.751Zm0-23.2A10.828,10.828,0,1,0,37.2,26.375,10.829,10.829,0,0,0,26.375,15.547Z" transform="translate(-6.265 -3.172)"/>
      <path id="Path_251" data-name="Path 251" d="M14.961,10.188H8.773A.773.773,0,0,1,8,9.414V4.773A.773.773,0,0,1,8.773,4h6.188a.773.773,0,0,1,.773.773V9.414A.773.773,0,0,1,14.961,10.188ZM9.547,8.641h4.641V5.547H9.547Z" transform="translate(-4.906 -0.906)"/>
      <path id="Path_252" data-name="Path 252" d="M9.547,20.188H8.773A.773.773,0,0,1,8,19.414V14.773A.773.773,0,0,1,8.773,14h3.094v1.547H9.547Z" transform="translate(-4.906 -3.172)"/>
      <rect id="Rectangle_348" data-name="Rectangle 348" width="2" height="2" transform="translate(12 3)"/>
      <rect id="Rectangle_349" data-name="Rectangle 349" width="21" height="2" transform="translate(15 3)"/>
      <rect id="Rectangle_350" data-name="Rectangle 350" width="2" height="1" transform="translate(12 45)"/>
      <rect id="Rectangle_351" data-name="Rectangle 351" width="14" height="1" transform="translate(15 45)"/>
      <rect id="Rectangle_352" data-name="Rectangle 352" width="14" height="1" transform="translate(12 42)"/>
      <path id="Path_253" data-name="Path 253" d="M25.641,34.375a.773.773,0,0,1-.547-.227l-3.867-3.867a.773.773,0,0,1,0-1.094l2.32-2.32a.773.773,0,0,1,1.094,0l1,1,5.641-5.641a.773.773,0,0,1,1.094,0l2.32,2.32a.773.773,0,0,1,0,1.094l-8.508,8.508A.773.773,0,0,1,25.641,34.375Zm-2.774-4.641,2.774,2.774,7.414-7.414-1.227-1.227-5.641,5.641a.773.773,0,0,1-1.094,0l-1-1Z" transform="translate(-7.851 -4.984)"/>
    </g>
  </g>
</svg>
