<svg xmlns="http://www.w3.org/2000/svg" width="40.418" height="49.502" viewBox="0 0 40.418 49.502">
  <g id="noun_filter_3475239" transform="translate(-7 -1.988)">
    <g id="Group_242" data-name="Group 242" transform="translate(7 1.988)">
      <path id="Path_254" data-name="Path 254" d="M47.176,47.485l-4.949-4.949a.825.825,0,0,0-.583-.242H16.9v-1.65a2.475,2.475,0,0,0-2.475-2.475H9.475a.825.825,0,1,1,0-1.65h4.949A2.475,2.475,0,0,0,16.9,34.045V32.4h5.774v3.3h-3.3a.825.825,0,0,0-.825.825v3.3a.825.825,0,0,0,.825.825h16.5a.825.825,0,0,0,.825-.825v-3.3a.825.825,0,0,0-.825-.825h-3.3V32.4H44.119a2.475,2.475,0,0,0,2.475-2.475V8.475A2.475,2.475,0,0,0,44.119,6h-6.6V7.65h6.6a.825.825,0,0,1,.825.825V25.8H10.3V8.475a.825.825,0,0,1,.825-.825h6.6V6h-6.6A2.475,2.475,0,0,0,8.65,8.475V29.921A2.475,2.475,0,0,0,11.124,32.4h4.124v1.65a.825.825,0,0,1-.825.825H9.475a2.475,2.475,0,0,0,0,4.949h4.949a.825.825,0,0,1,.825.825v1.65H13.6a.825.825,0,0,0-.583.242L8.067,47.485a.825.825,0,0,0-.242.583v2.475a1.65,1.65,0,0,0,1.65,1.65H45.768a1.65,1.65,0,0,0,1.65-1.65V48.068a.825.825,0,0,0-.242-.583Zm-12.131-8.49H20.2v-1.65H35.045Zm-4.124-3.3h-6.6V32.4h6.6ZM10.3,29.921V27.446H44.943v2.475a.825.825,0,0,1-.825.825H11.124A.825.825,0,0,1,10.3,29.921ZM13.94,43.943H41.3l3.3,3.3H10.641Zm-4.466,6.6v-1.65H45.768v1.65Z" transform="translate(-7 -2.69)"/>
      <rect id="Rectangle_353" data-name="Rectangle 353" width="1.65" height="1.65" transform="translate(7.424 42.078)"/>
      <rect id="Rectangle_354" data-name="Rectangle 354" width="1.65" height="1.65" transform="translate(10.723 42.078)"/>
      <rect id="Rectangle_355" data-name="Rectangle 355" width="1.65" height="1.65" transform="translate(28.87 42.078)"/>
      <rect id="Rectangle_356" data-name="Rectangle 356" width="13.198" height="1.65" transform="translate(14.023 42.078)"/>
      <rect id="Rectangle_357" data-name="Rectangle 357" width="1.65" height="1.65" transform="translate(32.169 42.078)"/>
      <rect id="Rectangle_358" data-name="Rectangle 358" width="1.65" height="1.65" transform="translate(32.994 25.581)"/>
      <path id="Path_255" data-name="Path 255" d="M22.65,6.8v.977a.825.825,0,0,0,.242.583L24.3,9.763v.483H22.65a.825.825,0,0,0-.825.825v3.3a.825.825,0,0,0,.289.626L27.6,19.7v2.92a.825.825,0,0,0,.825.825h3.3a.825.825,0,0,0,.825-.825V19.7L38.033,15a.825.825,0,0,0,.289-.627v-3.3a.825.825,0,0,0-.825-.825h-1.65V9.763l1.408-1.408a.825.825,0,0,0,.242-.583V6.8a2.475,2.475,0,1,0-1.65,0V7.43L34.439,8.838a.825.825,0,0,0-.242.583v.825H30.9V6.8a2.475,2.475,0,1,0-1.65,0v3.451h-3.3V9.422a.825.825,0,0,0-.242-.583L24.3,7.43V6.8a2.475,2.475,0,1,0-1.65,0ZM36.672,3.648a.825.825,0,1,1-.825.825A.825.825,0,0,1,36.672,3.648Zm-6.6,0a.825.825,0,1,1-.825.825A.825.825,0,0,1,30.073,3.648Zm1.114,15.046a.825.825,0,0,0-.289.626v2.475h-1.65V19.32a.825.825,0,0,0-.289-.626l-4.083-3.5H35.27Zm5.485-5.148h-13.2V11.9h13.2Zm-13.2-9.9a.825.825,0,1,1-.825.825A.825.825,0,0,1,23.475,3.648Z" transform="translate(-9.452 -1.988)"/>
    </g>
  </g>
</svg>
