<svg xmlns="http://www.w3.org/2000/svg" width="49.304" height="49.502" viewBox="0 0 49.304 49.502">
  <g id="noun_efficiency_3683373" transform="translate(-17.9 -16)">
    <path id="Path_256" data-name="Path 256" d="M49.641,181.38a19.577,19.577,0,0,1,1.65-7.92l-1.516-.66a21.493,21.493,0,0,0,4.218,23.471l1.186-1.145A19.76,19.76,0,0,1,49.641,181.38Z" transform="translate(-26.987 -140.63)"/>
    <path id="Path_257" data-name="Path 257" d="M313.9,16a9.9,9.9,0,1,0,9.9,9.9A9.9,9.9,0,0,0,313.9,16Zm6.383,15.118-.856-.856-1.165,1.165.856.856a8.215,8.215,0,0,1-4.393,1.825V32.5h-1.65v1.609a8.215,8.215,0,0,1-4.393-1.825l.856-.856-1.165-1.165-.856.856a8.215,8.215,0,0,1-1.825-4.393H307.3v-1.65h-1.609a8.215,8.215,0,0,1,1.825-4.393l.856.856,1.165-1.165-.856-.856a8.215,8.215,0,0,1,4.393-1.825V19.3h1.65V17.691a8.215,8.215,0,0,1,4.393,1.825l-.856.856,1.165,1.165.856-.856a8.215,8.215,0,0,1,1.825,4.393H320.5v1.65h1.609A8.215,8.215,0,0,1,320.283,31.118Z" transform="translate(-256.596)"/>
    <path id="Path_258" data-name="Path 258" d="M372.538,68.61,370.3,70.847l1.165,1.165,2.475-2.475a.818.818,0,0,0,.237-.588V64h-1.65v4.61Z" transform="translate(-316.059 -43.05)"/>
    <path id="Path_259" data-name="Path 259" d="M26.191,44.478l.928-.928h2.135v.825a.827.827,0,0,0,.825.825h4.95a.827.827,0,0,0,.825-.825h0v-8.25a.827.827,0,0,0-.825-.825h-4.95a.827.827,0,0,0-.825.825H27.243L25.016,32.4A.818.818,0,0,0,24.3,32h-.866a2.469,2.469,0,0,0-2.475,2.475,2.5,2.5,0,0,0,.175.918l.289.732H20.375A2.469,2.469,0,0,0,17.9,38.6a2.243,2.243,0,0,0,.01.268l.454,4.125a2.454,2.454,0,0,0,2.465,2.2h3.62A2.4,2.4,0,0,0,26.191,44.478ZM30.9,36.95h3.3v6.6H30.9Zm-10.89,5.868-.454-4.125a.823.823,0,0,1,.732-.907h2.362a.822.822,0,0,0,.763-1.134l-.742-1.867a.83.83,0,0,1,.464-1.072.789.789,0,0,1,.309-.062h.392l2.238,3.723a.818.818,0,0,0,.712.4h2.475V41.9H26.789a.835.835,0,0,0-.588.237l-1.176,1.176a.818.818,0,0,1-.588.237H20.829A.817.817,0,0,1,20.014,42.818Z" transform="translate(0 -14.35)"/>
    <path id="Path_260" data-name="Path 260" d="M129.843,310.794a.817.817,0,0,0-.588-.237H129.2a7.424,7.424,0,0,0-14.757,1.64,7.2,7.2,0,0,0,.5,1.959,2.5,2.5,0,0,0-1.908,1.093l-.969,1.454a.819.819,0,0,0,.227,1.145.63.63,0,0,0,.144.072l14.025,5.775a.825.825,0,0,0,.681-.021l4.775-2.393h8.064v-1.65h-8.25a.927.927,0,0,0-.371.082l-4.61,2.31L114,316.775l.412-.619a.837.837,0,0,1,.928-.33l9.549,2.939a.818.818,0,0,0,.825-.206l3.3-3.3a.828.828,0,0,0,0-1.165.818.818,0,0,0-.588-.237h-1.65a2.468,2.468,0,0,1-2.331-1.65h4.465l2.238,2.238a.818.818,0,0,0,.588.237h8.25v-1.65h-7.91Zm-6.363-.237a.827.827,0,0,0-.825.825h0a4.132,4.132,0,0,0,3.795,4.115l-1.557,1.557-7.837-2.413a5.646,5.646,0,0,1-1-3.248,5.774,5.774,0,0,1,11.488-.825H123.48Z" transform="translate(-84.326 -258.257)"/>
    <path id="Path_261" data-name="Path 261" d="M186.2,156.9l-.227.557-1.248.3a.827.827,0,0,0-.629.8v1.732a.827.827,0,0,0,.629.8l1.248.3.227.557-.67,1.1a.812.812,0,0,0,.124,1.011l1.227,1.227a.828.828,0,0,0,1.011.124l1.1-.67.557.227.3,1.248a.827.827,0,0,0,.8.629h1.732a.827.827,0,0,0,.8-.629l.3-1.248.557-.227,1.1.67a.812.812,0,0,0,1.011-.124l1.227-1.227a.828.828,0,0,0,.124-1.011l-.67-1.1.227-.557,1.248-.3a.827.827,0,0,0,.629-.8v-1.732a.827.827,0,0,0-.629-.8l-1.248-.3-.227-.557.67-1.1a.812.812,0,0,0-.124-1.011l-1.237-1.227a.828.828,0,0,0-1.011-.124l-1.1.67-.557-.227-.3-1.248a.827.827,0,0,0-.8-.629h-1.732a.827.827,0,0,0-.8.629l-.3,1.248-.557.227-1.1-.67a.812.812,0,0,0-1.011.124l-1.227,1.227a.828.828,0,0,0-.124,1.011Zm1.134,1.578.557-1.33a.789.789,0,0,0-.062-.742l-.557-.908.309-.309.908.557a.858.858,0,0,0,.743.062l1.33-.557a.813.813,0,0,0,.485-.567l.247-1.021h.433l.247,1.021a.838.838,0,0,0,.485.567l1.33.557a.789.789,0,0,0,.743-.062l.908-.557.309.309-.557.908a.858.858,0,0,0-.062.742l.557,1.33a.813.813,0,0,0,.567.485l1.021.247v.433l-1.021.247a.837.837,0,0,0-.567.485l-.557,1.33a.789.789,0,0,0,.062.742l.557.908-.309.309-.908-.557a.858.858,0,0,0-.743-.062l-1.33.557a.813.813,0,0,0-.485.567l-.247,1.021H191.3l-.247-1.021a.838.838,0,0,0-.485-.567l-1.33-.557a.789.789,0,0,0-.743.062l-.908.557-.309-.309.557-.908a.858.858,0,0,0,.062-.742l-.557-1.33a.813.813,0,0,0-.567-.485l-1.021-.247v-.433l1.021-.247a.834.834,0,0,0,.567-.485Z" transform="translate(-149.061 -121.975)"/>
    <path id="Path_262" data-name="Path 262" d="M234.475,204.95A2.475,2.475,0,1,0,232,202.475,2.469,2.469,0,0,0,234.475,204.95Zm0-3.3a.825.825,0,1,1-.825.825A.827.827,0,0,1,234.475,201.65Z" transform="translate(-192.021 -165.025)"/>
    <path id="Path_263" data-name="Path 263" d="M401.688,214.82a19.9,19.9,0,0,1-4.888,17.428l1.207,1.124A21.442,21.442,0,0,0,403.3,214.5Z" transform="translate(-339.826 -178.03)"/>
    <path id="Path_264" data-name="Path 264" d="M211.246,49.6a20.381,20.381,0,0,1,3.96.392l.33-1.619a21.583,21.583,0,0,0-9.436.2l.392,1.6A20.526,20.526,0,0,1,211.246,49.6Z" transform="translate(-168.792 -28.65)"/>
    <path id="Path_265" data-name="Path 265" d="M90.6,167.5a17.343,17.343,0,0,0,0,18.263L92,184.9a15.686,15.686,0,0,1,0-16.521Z" transform="translate(-62.871 -135.877)"/>
    <path id="Path_266" data-name="Path 266" d="M363.465,238.24a17.324,17.324,0,0,0,4.847-15.84l-1.619.33a16,16,0,0,1,.309,3.135,15.539,15.539,0,0,1-4.7,11.189Z" transform="translate(-308.884 -185.115)"/>
    <path id="Path_267" data-name="Path 267" d="M210.8,89.6a16,16,0,0,1,3.135.309l.33-1.619a17.5,17.5,0,0,0-8.662.443l.495,1.578A15.8,15.8,0,0,1,210.8,89.6Z" transform="translate(-168.343 -64.527)"/>
    <path id="Path_268" data-name="Path 268" d="M168,340.174a4.167,4.167,0,0,0,1.031,2.733l1.238-1.093a2.477,2.477,0,0,1,3.094-3.785l.825-1.423a4.12,4.12,0,0,0-5.631,1.516A3.984,3.984,0,0,0,168,340.174Z" transform="translate(-134.621 -287.049)"/>
  </g>
</svg>
